<svg width="573" height="396" viewBox="0 0 573 396" fill="none" xmlns="http://www.w3.org/2000/svg">
<path d="M449.991 76.9043H454.706V109.128H449.991V76.9043Z" fill="#2A2A2A"/>
<path d="M460.206 69.8312C460.206 74.1719 456.688 77.6907 452.348 77.6907C448.009 77.6907 444.49 74.1719 444.49 69.8312C444.49 65.4905 448.009 61.9717 452.348 61.9717C456.688 61.9717 460.206 65.4905 460.206 69.8312Z" fill="#C8AFFF"/>
<path d="M457.849 69.8312C457.849 66.7927 455.386 64.3295 452.348 64.3295C449.31 64.3295 446.848 66.7927 446.848 69.8312C446.848 72.8697 449.31 75.3328 452.348 75.3328V77.6907C448.009 77.6907 444.49 74.1719 444.49 69.8312C444.49 65.4905 448.009 61.9717 452.348 61.9717C456.688 61.9717 460.206 65.4905 460.206 69.8312C460.206 74.1719 456.688 77.6907 452.348 77.6907V75.3328C455.386 75.3328 457.849 72.8697 457.849 69.8312Z" fill="#2A2A2A"/>
<path fill-rule="evenodd" clip-rule="evenodd" d="M363.442 235.627C360.595 235.243 358.055 237.455 358.055 240.329V312.108C358.055 313.7 358.055 317.012 358.055 317.012C358.055 317.012 358.055 319.924 358.055 321.516V339.549V357.582C358.055 378.8 375.366 396 396.721 396H404.612C425.966 396 442.882 378.8 442.882 357.582V350.526C442.882 345.037 460.242 345.037 460.242 350.526V357.582C460.242 378.8 477.159 396 498.513 396H506.404C527.758 396 545.069 378.8 545.069 357.582V339.549V321.516C545.069 319.924 545.069 317.012 545.069 317.012C545.069 317.012 545.069 313.7 545.069 312.108V240.327C545.069 237.454 542.53 235.242 539.684 235.625C524.614 237.656 481.161 243.135 451.168 243.113C435.798 243.101 416.865 241.64 400.094 239.952C384.444 238.377 370.676 236.604 363.442 235.627Z" fill="#FDFDFD"/>
<path d="M539.684 235.625C542.531 235.242 545.069 237.454 545.069 240.327V357.582C545.069 378.799 527.759 395.999 506.404 396H498.513C477.159 396 460.243 378.799 460.243 357.582V350.526C460.243 345.038 442.883 345.038 442.883 350.526V357.582C442.883 378.799 425.966 396 404.611 396H396.721C375.366 396 358.055 378.799 358.055 357.582V240.329C358.055 237.455 360.596 235.242 363.443 235.627C370.677 236.604 384.444 238.377 400.094 239.952C416.865 241.64 435.798 243.101 451.168 243.113C481.161 243.135 524.614 237.656 539.684 235.625ZM360.412 357.582C360.412 377.482 376.654 393.642 396.721 393.642H404.611C424.647 393.642 440.525 377.514 440.525 357.582V351.878C439.966 351.916 439.32 351.959 438.598 352.003C435.872 352.171 432.064 352.373 427.736 352.508C419.098 352.776 408.323 352.779 399.943 351.695C391.564 350.611 380.98 347.844 372.531 345.365C368.298 344.123 364.585 342.948 361.93 342.084C361.376 341.904 360.869 341.736 360.412 341.585V357.582ZM541.327 342.081C538.745 342.945 535.129 344.12 530.993 345.363C522.739 347.842 512.349 350.61 503.967 351.695C495.587 352.779 484.615 352.776 475.782 352.508C471.357 352.373 467.451 352.171 464.651 352.003C463.879 351.957 463.192 351.914 462.6 351.874V357.582C462.6 377.514 478.477 393.642 498.513 393.642H506.404C526.471 393.642 542.712 377.482 542.712 357.582V341.613C542.292 341.755 541.829 341.913 541.327 342.081ZM542.712 240.327C542.712 238.887 541.437 237.768 539.999 237.962C524.944 239.99 481.341 245.493 451.166 245.47C435.677 245.459 416.651 243.988 399.858 242.298C384.173 240.719 370.377 238.943 363.127 237.964C361.689 237.77 360.412 238.888 360.412 240.329V339.1C361.034 339.308 361.789 339.559 362.659 339.842C365.298 340.701 368.989 341.868 373.195 343.102C381.625 345.576 392.06 348.297 400.245 349.356C408.429 350.415 419.048 350.418 427.663 350.151C431.962 350.017 435.745 349.817 438.453 349.65C439.285 349.599 440.016 349.549 440.628 349.507C441.091 347.284 443.033 345.959 444.68 345.265C446.685 344.42 449.19 344.052 451.562 344.052C453.934 344.052 456.44 344.42 458.445 345.265C460.091 345.959 462.031 347.282 462.495 349.504C463.138 349.547 463.91 349.597 464.792 349.65C467.574 349.817 471.456 350.017 475.854 350.151C484.667 350.418 495.482 350.415 503.665 349.356C511.846 348.298 522.084 345.578 530.315 343.105C534.422 341.871 538.014 340.704 540.579 339.845C541.401 339.57 542.118 339.324 542.712 339.12V240.327Z" fill="#2A2A2A"/>
<path fill-rule="evenodd" clip-rule="evenodd" d="M542.712 309.545C553.995 309.545 563.142 297.053 563.142 281.643C563.142 266.234 553.995 253.742 542.712 253.742V309.545Z" fill="#FDFDFD"/>
<path d="M542.712 253.742C553.995 253.742 563.142 266.234 563.142 281.643C563.142 297.053 553.995 309.545 542.712 309.545V253.742ZM545.069 306.966C548.895 306.25 552.453 303.808 555.257 299.98C558.628 295.376 560.785 288.9 560.785 281.643C560.785 274.387 558.628 267.911 555.257 263.307C552.453 259.478 548.895 257.036 545.069 256.32V306.966Z" fill="#2A2A2A"/>
<path fill-rule="evenodd" clip-rule="evenodd" d="M360.413 309.545C349.129 309.545 339.982 297.053 339.982 281.643C339.982 266.234 349.129 253.742 360.413 253.742V309.545Z" fill="#FDFDFD"/>
<path d="M360.413 253.742C349.129 253.742 339.982 266.234 339.982 281.643C339.982 297.053 349.129 309.545 360.413 309.545V253.742ZM358.055 306.966C354.23 306.25 350.671 303.808 347.868 299.98C344.497 295.376 342.34 288.9 342.34 281.643C342.34 274.387 344.497 267.911 347.868 263.307C350.671 259.478 354.229 257.036 358.055 256.32V306.966Z" fill="#2A2A2A"/>
<path d="M527.783 277.321L520.318 271.033V279.286L523.461 281.251L527.783 277.321Z" fill="#FF2A80"/>
<path d="M520.318 271.033L513.779 276.818L516.389 282.429L520.318 279.286V271.033Z" fill="#FF669C"/>
<path d="M513.779 276.818L510.103 280.072L516.389 282.429L513.779 276.818Z" fill="#FF0021"/>
<path d="M510.103 280.072L509.71 292.254L515.996 289.11L516.389 282.429L510.103 280.072Z" fill="#9D2669"/>
<path d="M530.926 284.787L527.783 277.321L523.461 281.251L526.997 292.254L530.926 284.787Z" fill="#FFCFDE"/>
<path d="M530.926 289.896V284.787L526.997 292.254L527.783 296.97L528.961 296.184L530.926 289.896Z" fill="#007365"/>
<path d="M524.247 299.327L527.783 296.97L526.997 292.254L518.353 295.005L520.318 300.506L524.247 299.327Z" fill="#00636C"/>
<path d="M516.389 298.541L520.318 300.506L518.353 295.005L512.853 296.184L516.389 298.541Z" fill="#00A3B4"/>
<path d="M509.71 292.254L512.853 296.184L518.353 295.005L515.996 289.11L509.71 292.254Z" fill="#39E6DC"/>
<path fill-rule="evenodd" clip-rule="evenodd" d="M523.461 281.251L515.996 289.11L518.353 295.005L526.997 292.254L523.461 281.251Z" fill="#00FF8E"/>
<path d="M523.461 281.251L520.318 279.286L516.389 282.429L515.996 289.11L523.461 281.251Z" fill="#FDD7AD"/>
<path d="M518.859 295.256L520.561 300.023L524.076 298.969L527.353 296.784L526.683 292.766L518.859 295.256ZM513.845 296.373L516.586 298.201L519.618 299.718L518.099 295.461L513.845 296.373ZM527.406 292.32L528.069 296.305L528.626 295.934L530.532 289.835V286.377L527.406 292.32ZM510.32 292.388L513.008 295.748L517.815 294.718L515.789 289.652L510.32 292.388ZM516.454 289.199L518.582 294.519L526.502 291.999L523.289 282.002L516.454 289.199ZM510.123 291.607L515.617 288.86L515.979 282.696L510.478 280.632L510.123 291.607ZM523.911 281.372L527.084 291.244L530.491 284.769L527.635 277.985L523.911 281.372ZM516.77 282.627L516.451 288.061L522.844 281.329L520.345 279.767L516.77 282.627ZM514.259 276.918L516.534 281.81L519.925 279.097V271.905L514.259 276.918ZM510.851 279.933L515.627 281.725L513.645 277.462L510.851 279.933ZM520.71 279.068L523.416 280.76L527.185 277.333L520.71 271.879V279.068ZM531.318 289.897C531.318 289.936 531.312 289.976 531.301 290.014L529.336 296.302C529.309 296.387 529.254 296.461 529.179 296.511L524.464 299.655C524.432 299.677 524.396 299.693 524.359 299.704L520.43 300.883C520.334 300.912 520.231 300.903 520.142 300.858L516.213 298.894C516.198 298.886 516.184 298.878 516.171 298.869L512.635 296.511C512.601 296.489 512.571 296.461 512.546 296.43L509.403 292.5C509.344 292.427 509.314 292.335 509.317 292.241L509.709 280.059C509.713 279.951 509.761 279.85 509.842 279.778L520.057 270.74L520.115 270.697C520.256 270.612 520.44 270.623 520.571 270.733L528.036 277.021L528.098 277.088C528.117 277.113 528.132 277.14 528.144 277.169L531.288 284.635C531.308 284.683 531.318 284.736 531.318 284.788V289.897Z" fill="url(#paint0_linear_6415_3982)"/>
<path fill-rule="evenodd" clip-rule="evenodd" d="M393.415 251.548C393.415 242.342 400.876 234.88 410.079 234.88H493.046C502.249 234.88 509.71 242.342 509.71 251.548C509.71 256.656 507.368 261.482 503.356 264.642L482.984 280.688C479.936 283.089 476.169 284.395 472.289 284.395H430.836C426.956 284.395 423.189 283.089 420.141 280.688L399.769 264.642C395.757 261.482 393.415 256.656 393.415 251.548Z" fill="#2A2A2A"/>
<g filter="url(#filter0_f_6415_3982)">
<path d="M491.378 239.596C497.023 239.596 501.894 243.554 503.051 249.08C503.997 253.605 502.245 258.269 498.553 261.05L478.969 275.806C475.971 278.064 472.32 279.286 468.568 279.286H433.751C430.011 279.286 426.372 278.072 423.38 275.828L404.626 261.76C401.526 259.434 399.701 255.785 399.701 251.909C399.701 245.109 405.213 239.596 412.012 239.596H491.378ZM412.012 241.954C406.515 241.954 402.059 246.411 402.059 251.909C402.059 255.043 403.534 257.993 406.04 259.873L424.794 273.942C427.378 275.88 430.521 276.928 433.751 276.928H468.568C471.809 276.928 474.962 275.874 477.551 273.923L497.135 259.168C500.097 256.936 501.503 253.193 500.743 249.563C499.815 245.129 495.907 241.954 491.378 241.954H412.012Z" fill="#7F4EEB"/>
</g>
<path d="M491.378 239.596C497.023 239.596 501.894 243.554 503.051 249.08C503.997 253.605 502.245 258.269 498.553 261.05L478.969 275.806C475.971 278.064 472.32 279.286 468.568 279.286H433.751C430.011 279.286 426.372 278.072 423.38 275.828L404.626 261.76C401.526 259.434 399.701 255.785 399.701 251.909C399.701 245.109 405.213 239.596 412.012 239.596H491.378ZM412.012 241.954C406.515 241.954 402.059 246.411 402.059 251.909C402.059 255.043 403.534 257.993 406.04 259.873L424.794 273.942C427.378 275.88 430.521 276.928 433.751 276.928H468.568C471.809 276.928 474.962 275.874 477.551 273.923L497.135 259.168C500.097 256.936 501.503 253.193 500.743 249.563C499.815 245.129 495.907 241.954 491.378 241.954H412.012Z" fill="#C8AFFF"/>
<path d="M350.198 165.337C350.198 136.715 371.281 112.395 399.773 109.736C417.16 108.113 436.254 106.775 451.955 106.771C468.007 106.766 487.703 108.142 505.578 109.798C534.124 112.441 555.285 136.785 555.285 165.459V201.112C555.285 223.995 541.296 244.018 518.649 247.267C502.791 249.542 481.355 251.386 453.527 251.385C423.597 251.385 401.324 249.486 385.276 247.163C363.403 243.997 350.198 224.736 350.198 202.631V165.337Z" fill="#FDFDFD"/>
<path d="M350.198 202.63V165.338C350.198 136.939 370.953 112.775 399.106 109.802L399.773 109.736C417.161 108.114 436.254 106.775 451.955 106.771C468.007 106.766 487.702 108.143 505.578 109.798C534.124 112.441 555.285 136.785 555.285 165.46V201.112L555.275 202.182C554.846 224.617 540.942 244.069 518.649 247.267L517.146 247.479C501.445 249.655 480.486 251.386 453.527 251.385V249.028C481.251 249.028 502.575 247.191 518.315 244.933C539.558 241.885 552.927 223.085 552.927 201.112V165.46C552.927 137.942 532.634 114.671 505.36 112.146C487.507 110.492 467.898 109.124 451.956 109.128C436.364 109.133 417.356 110.463 399.992 112.083C372.774 114.623 352.555 137.87 352.555 165.338V202.63C352.555 223.847 365.159 241.869 385.614 244.83C401.536 247.135 423.696 249.028 453.527 249.028V251.385C424.533 251.385 402.723 249.603 386.799 247.38L385.277 247.163C363.404 243.998 350.198 224.736 350.198 202.63Z" fill="#2A2A2A"/>
<path d="M516.781 178.685C516.781 195.397 491.417 208.944 454.312 208.944C417.208 208.944 391.844 195.397 391.844 178.685C391.844 161.973 417.208 148.426 454.312 148.426C491.417 148.426 516.781 161.973 516.781 178.685Z" fill="#2A2A2A"/>
<g filter="url(#filter1_f_6415_3982)">
<path d="M427.203 173.577C427.203 170.104 430.018 167.289 433.49 167.289H437.418C440.89 167.289 443.705 170.104 443.705 173.577V183.008C443.705 186.481 440.89 189.296 437.418 189.296H433.49C430.018 189.296 427.203 186.481 427.203 183.008V173.577Z" fill="#C8AFFF"/>
</g>
<path d="M427.203 173.577C427.203 170.104 430.018 167.289 433.49 167.289H437.418C440.89 167.289 443.705 170.104 443.705 173.577V183.008C443.705 186.481 440.89 189.296 437.418 189.296H433.49C430.018 189.296 427.203 186.481 427.203 183.008V173.577Z" fill="#C8AFFF"/>
<g filter="url(#filter2_f_6415_3982)">
<path d="M464.79 173.577C464.79 170.104 467.604 167.289 471.076 167.289H475.005C478.476 167.289 481.291 170.104 481.291 173.577V183.008C481.291 186.481 478.476 189.296 475.005 189.296H471.076C467.604 189.296 464.79 186.481 464.79 183.008V173.577Z" fill="#C8AFFF"/>
</g>
<path d="M464.79 173.577C464.79 170.104 467.604 167.289 471.076 167.289H475.005C478.476 167.289 481.291 170.104 481.291 173.577V183.008C481.291 186.481 478.476 189.296 475.005 189.296H471.076C467.604 189.296 464.79 186.481 464.79 183.008V173.577Z" fill="#C8AFFF"/>
<path d="M571 179.078C571 192.968 565.195 204.229 558.035 204.229C550.874 204.229 545.07 192.968 545.07 179.078C545.07 165.188 550.874 153.928 558.035 153.928C565.195 153.928 571 165.188 571 179.078Z" fill="#2A2A2A"/>
<path d="M568.643 179.078C568.643 172.43 567.249 166.528 565.108 162.374C562.904 158.1 560.279 156.286 558.035 156.286C555.79 156.286 553.166 158.1 550.962 162.374C548.821 166.528 547.427 172.43 547.427 179.078C547.427 185.726 548.821 191.628 550.962 195.782C553.166 200.056 555.79 201.871 558.035 201.871V204.229C550.874 204.229 545.07 192.968 545.07 179.078C545.07 165.188 550.874 153.928 558.035 153.928C565.195 153.928 571 165.188 571 179.078C571 192.968 565.195 204.229 558.035 204.229V201.871C560.279 201.871 562.904 200.056 565.108 195.782C567.249 191.628 568.643 185.726 568.643 179.078Z" fill="#2A2A2A"/>
<g filter="url(#filter3_f_6415_3982)">
<path d="M566.285 178.292C566.285 173.491 565.605 169.246 564.575 166.284C564.056 164.792 563.492 163.753 562.982 163.133C562.646 162.724 562.433 162.609 562.356 162.58C562.28 162.609 562.067 162.724 561.73 163.133C561.221 163.753 560.657 164.792 560.138 166.284C559.108 169.246 558.427 173.491 558.427 178.292C558.427 183.092 559.108 187.338 560.138 190.3C560.657 191.792 561.221 192.831 561.73 193.45C562.066 193.859 562.279 193.973 562.356 194.003C562.433 193.973 562.646 193.859 562.982 193.45C563.492 192.831 564.056 191.792 564.575 190.3C565.605 187.338 566.285 183.092 566.285 178.292ZM568.642 178.292C568.642 188.275 565.828 196.369 562.356 196.369C558.884 196.369 556.07 188.275 556.07 178.292C556.07 168.308 558.884 160.215 562.356 160.215C565.828 160.215 568.642 168.308 568.642 178.292Z" fill="#C8AFFF"/>
</g>
<path d="M566.285 178.292C566.285 173.491 565.605 169.246 564.575 166.284C564.056 164.792 563.492 163.753 562.982 163.133C562.646 162.724 562.433 162.609 562.356 162.58C562.28 162.609 562.067 162.724 561.73 163.133C561.221 163.753 560.657 164.792 560.138 166.284C559.108 169.246 558.427 173.491 558.427 178.292C558.427 183.092 559.108 187.338 560.138 190.3C560.657 191.792 561.221 192.831 561.73 193.45C562.066 193.859 562.279 193.973 562.356 194.003C562.433 193.973 562.646 193.859 562.982 193.45C563.492 192.831 564.056 191.792 564.575 190.3C565.605 187.338 566.285 183.092 566.285 178.292ZM568.642 178.292C568.642 188.275 565.828 196.369 562.356 196.369C558.884 196.369 556.07 188.275 556.07 178.292C556.07 168.308 558.884 160.215 562.356 160.215C565.828 160.215 568.642 168.308 568.642 178.292Z" fill="#C8AFFF"/>
<path d="M362.77 179.078C362.77 192.968 356.965 204.229 349.805 204.229C342.644 204.229 336.84 192.968 336.84 179.078C336.84 165.188 342.644 153.928 349.805 153.928C356.965 153.928 362.77 165.188 362.77 179.078Z" fill="#2A2A2A"/>
<path d="M360.413 179.078C360.413 172.43 359.019 166.528 356.878 162.374C354.674 158.1 352.049 156.286 349.805 156.286C347.56 156.286 344.936 158.1 342.732 162.374C340.591 166.528 339.197 172.43 339.197 179.078C339.197 185.726 340.591 191.628 342.732 195.782C344.936 200.056 347.56 201.871 349.805 201.871V204.229C342.644 204.229 336.84 192.968 336.84 179.078C336.84 165.188 342.644 153.928 349.805 153.928C356.965 153.928 362.77 165.188 362.77 179.078C362.77 192.968 356.965 204.229 349.805 204.229V201.871C352.049 201.871 354.674 200.056 356.878 195.782C359.019 191.628 360.413 185.726 360.413 179.078Z" fill="#2A2A2A"/>
<g filter="url(#filter4_f_6415_3982)">
<path d="M349.412 178.292C349.412 173.491 348.731 169.246 347.701 166.284C347.183 164.792 346.619 163.753 346.109 163.133C345.773 162.724 345.56 162.609 345.483 162.58C345.406 162.609 345.193 162.724 344.857 163.133C344.347 163.753 343.783 164.792 343.265 166.284C342.234 169.246 341.554 173.491 341.554 178.292C341.554 183.092 342.234 187.338 343.265 190.3C343.783 191.792 344.347 192.831 344.857 193.45C345.193 193.859 345.406 193.973 345.483 194.003C345.56 193.973 345.773 193.859 346.109 193.45C346.619 192.831 347.183 191.792 347.701 190.3C348.731 187.338 349.412 183.092 349.412 178.292ZM351.769 178.292C351.769 188.275 348.955 196.369 345.483 196.369C342.011 196.369 339.197 188.275 339.197 178.292C339.197 168.308 342.011 160.215 345.483 160.215C348.955 160.215 351.769 168.308 351.769 178.292Z" fill="#C8AFFF"/>
</g>
<path d="M349.412 178.292C349.412 173.491 348.731 169.246 347.701 166.284C347.183 164.792 346.619 163.753 346.109 163.133C345.773 162.724 345.56 162.609 345.483 162.58C345.406 162.609 345.193 162.724 344.857 163.133C344.347 163.753 343.783 164.792 343.265 166.284C342.234 169.246 341.554 173.491 341.554 178.292C341.554 183.092 342.234 187.338 343.265 190.3C343.783 191.792 344.347 192.831 344.857 193.45C345.193 193.859 345.406 193.973 345.483 194.003C345.56 193.973 345.773 193.859 346.109 193.45C346.619 192.831 347.183 191.792 347.701 190.3C348.731 187.338 349.412 183.092 349.412 178.292ZM351.769 178.292C351.769 188.275 348.955 196.369 345.483 196.369C342.011 196.369 339.197 188.275 339.197 178.292C339.197 168.308 342.011 160.215 345.483 160.215C348.955 160.215 351.769 168.308 351.769 178.292Z" fill="#C8AFFF"/>
<path d="M367.84 1.47363C374.35 1.47363 379.627 6.75186 379.627 13.2629V66.3145C379.627 72.8255 374.35 78.1037 367.84 78.1037H305.305C302.972 78.1037 301.564 80.6861 302.828 82.6474L314.597 100.919C315.148 101.774 314.195 102.8 313.302 102.313L269.511 78.4626C269.079 78.2271 268.594 78.1037 268.102 78.1037H13.2602C6.75067 78.1037 1.47363 72.8255 1.47363 66.3145V13.2629C1.47363 6.75186 6.75067 1.47363 13.2602 1.47363H367.84Z" fill="#FDFDFD"/>
<path d="M378.153 13.2629C378.153 7.56576 373.536 2.94731 367.84 2.94731H13.2599C7.56406 2.94731 2.94665 7.56576 2.94665 13.2629V66.3145L2.96008 66.845C3.23616 72.2956 7.74196 76.6301 13.2599 76.6301H268.102C268.84 76.6301 269.568 76.8151 270.216 77.1683L312.316 100.098L301.589 83.4457C299.693 80.5038 301.805 76.6301 305.304 76.6301H367.84L368.371 76.6166C373.82 76.3405 378.153 71.8337 378.153 66.3145V13.2629ZM381.1 66.3145C381.1 73.6394 375.163 79.5774 367.84 79.5774H305.304C304.138 79.5774 303.434 80.8686 304.066 81.8493L315.835 100.12C317.214 102.26 314.829 104.824 312.596 103.608L268.806 79.7568C268.59 79.6392 268.348 79.5774 268.102 79.5774H13.2599C6.05116 79.5774 0.186429 73.8236 0.00479598 66.657L0 66.3145V13.2629C0 5.938 5.93667 7.89942e-08 13.2599 0H367.84C375.163 0 381.1 5.938 381.1 13.2629V66.3145Z" fill="#2A2A2A"/>
<path d="M284.114 57.9681C283.423 57.9681 282.8 57.845 282.247 57.5988C281.698 57.3478 281.262 56.9785 280.94 56.4908C280.623 56.0031 280.464 55.4018 280.464 54.6868C280.464 54.0713 280.578 53.5623 280.805 53.1598C281.032 52.7574 281.342 52.4354 281.735 52.1939C282.128 51.9525 282.571 51.7702 283.063 51.6471C283.56 51.5192 284.074 51.4269 284.604 51.3701C285.243 51.3038 285.761 51.2446 286.159 51.1925C286.557 51.1357 286.846 51.0505 287.025 50.9368C287.21 50.8185 287.302 50.6362 287.302 50.39V50.3473C287.302 49.8123 287.144 49.398 286.827 49.1044C286.509 48.8109 286.053 48.6641 285.456 48.6641C284.827 48.6641 284.327 48.8014 283.958 49.076C283.593 49.3507 283.347 49.675 283.219 50.049L280.819 49.7081C281.009 49.0453 281.321 48.4913 281.757 48.0462C282.192 47.5964 282.725 47.2602 283.354 47.0377C283.984 46.8104 284.68 46.6968 285.442 46.6968C285.967 46.6968 286.49 46.7583 287.011 46.8814C287.532 47.0045 288.008 47.2081 288.438 47.4922C288.869 47.7716 289.215 48.1527 289.475 48.6357C289.74 49.1187 289.873 49.7223 289.873 50.4468V57.7479H287.402V56.2493H287.317C287.16 56.5524 286.94 56.8365 286.656 57.1016C286.377 57.362 286.024 57.5727 285.598 57.7337C285.177 57.89 284.682 57.9681 284.114 57.9681ZM284.782 56.0789C285.298 56.0789 285.745 55.9771 286.124 55.7735C286.502 55.5651 286.793 55.2905 286.997 54.9496C287.205 54.6087 287.309 54.237 287.309 53.8346V52.549C287.229 52.6153 287.092 52.6769 286.898 52.7337C286.708 52.7905 286.495 52.8402 286.259 52.8829C286.022 52.9255 285.788 52.9633 285.556 52.9965C285.324 53.0296 285.122 53.058 284.952 53.0817C284.569 53.1338 284.225 53.219 283.922 53.3374C283.619 53.4558 283.38 53.6215 283.205 53.8346C283.03 54.0429 282.942 54.3128 282.942 54.6442C282.942 55.1177 283.115 55.4752 283.461 55.7167C283.806 55.9581 284.247 56.0789 284.782 56.0789Z" fill="#201F1F"/>
<path d="M273.243 57.7487V46.8396H275.735V48.6578H275.849C276.048 48.028 276.389 47.5427 276.871 47.2018C277.359 46.8562 277.915 46.6833 278.54 46.6833C278.682 46.6833 278.841 46.6905 279.016 46.7047C279.196 46.7141 279.345 46.7307 279.463 46.7544V49.1194C279.354 49.0815 279.181 49.0484 278.945 49.02C278.713 48.9869 278.488 48.9703 278.27 48.9703C277.802 48.9703 277.38 49.0721 277.006 49.2757C276.637 49.4745 276.346 49.7515 276.133 50.1066C275.92 50.4618 275.813 50.8713 275.813 51.3353V57.7487H273.243Z" fill="#201F1F"/>
<path d="M266.218 57.961C265.125 57.961 264.181 57.7337 263.385 57.2792C262.595 56.8199 261.986 56.1712 261.56 55.3331C261.134 54.4903 260.921 53.4984 260.921 52.3573C260.921 51.2351 261.134 50.2503 261.56 49.4027C261.991 48.5505 262.592 47.8876 263.364 47.4141C264.136 46.9359 265.042 46.6968 266.084 46.6968C266.756 46.6968 267.39 46.8057 267.987 47.0235C268.588 47.2365 269.118 47.568 269.577 48.0178C270.041 48.4676 270.406 49.0405 270.671 49.7365C270.936 50.4278 271.068 51.2517 271.068 52.2081V52.9965H262.128V51.2635H268.604C268.6 50.7711 268.493 50.3331 268.285 49.9496C268.077 49.5614 267.785 49.256 267.411 49.0334C267.042 48.8109 266.611 48.6996 266.119 48.6996C265.594 48.6996 265.132 48.8275 264.734 49.0831C264.337 49.3341 264.027 49.6655 263.804 50.0775C263.586 50.4847 263.475 50.9321 263.471 51.4198V52.9326C263.471 53.567 263.587 54.1115 263.818 54.5661C264.05 55.0159 264.375 55.3616 264.791 55.603C265.208 55.8398 265.695 55.9581 266.254 55.9581C266.628 55.9581 266.966 55.9061 267.269 55.8019C267.572 55.693 267.835 55.5344 268.058 55.326C268.28 55.1177 268.448 54.8597 268.562 54.5519L270.962 54.8218C270.81 55.4562 270.522 56.0102 270.095 56.4837C269.674 56.9525 269.135 57.317 268.477 57.5775C267.819 57.8331 267.066 57.961 266.218 57.961Z" fill="#201F1F"/>
<path d="M243.445 57.7479V46.8388H245.902V48.6925H246.03C246.257 48.0675 246.633 47.5798 247.159 47.2294C247.684 46.8743 248.311 46.6968 249.04 46.6968C249.779 46.6968 250.401 46.8767 250.908 47.2365C251.419 47.5917 251.779 48.077 251.987 48.6925H252.101C252.342 48.0865 252.749 47.6035 253.322 47.2437C253.9 46.8791 254.584 46.6968 255.374 46.6968C256.378 46.6968 257.197 47.014 257.831 47.6485C258.465 48.2829 258.783 49.2086 258.783 50.4255V57.7479H256.205V50.8232C256.205 50.1461 256.025 49.6513 255.665 49.3388C255.306 49.0216 254.865 48.863 254.345 48.863C253.724 48.863 253.239 49.0571 252.889 49.4454C252.543 49.8289 252.371 50.3284 252.371 50.9439V57.7479H249.85V50.7167C249.85 50.1532 249.679 49.7034 249.339 49.3672C249.003 49.0311 248.562 48.863 248.018 48.863C247.649 48.863 247.313 48.9577 247.01 49.1471C246.707 49.3317 246.465 49.5945 246.285 49.9354C246.105 50.2716 246.016 50.6646 246.016 51.1144V57.7479H243.445Z" fill="#201F1F"/>
<path d="M235.102 57.9681C234.411 57.9681 233.788 57.845 233.234 57.5988C232.685 57.3478 232.25 56.9785 231.928 56.4908C231.61 56.0031 231.452 55.4018 231.452 54.6868C231.452 54.0713 231.566 53.5623 231.793 53.1598C232.02 52.7574 232.33 52.4354 232.723 52.1939C233.116 51.9525 233.558 51.7702 234.051 51.6471C234.548 51.5192 235.061 51.4269 235.592 51.3701C236.231 51.3038 236.749 51.2446 237.147 51.1925C237.544 51.1357 237.833 51.0505 238.013 50.9368C238.198 50.8185 238.29 50.6362 238.29 50.39V50.3473C238.29 49.8123 238.131 49.398 237.814 49.1044C237.497 48.8109 237.04 48.6641 236.444 48.6641C235.814 48.6641 235.315 48.8014 234.945 49.076C234.581 49.3507 234.335 49.675 234.207 50.049L231.807 49.7081C231.996 49.0453 232.309 48.4913 232.744 48.0462C233.18 47.5964 233.712 47.2602 234.342 47.0377C234.971 46.8104 235.667 46.6968 236.429 46.6968C236.955 46.6968 237.478 46.7583 237.999 46.8814C238.519 47.0045 238.995 47.2081 239.426 47.4922C239.857 47.7716 240.202 48.1527 240.463 48.6357C240.728 49.1187 240.86 49.7223 240.86 50.4468V57.7479H238.389V56.2493H238.304C238.148 56.5524 237.928 56.8365 237.644 57.1016C237.364 57.362 237.012 57.5727 236.586 57.7337C236.164 57.89 235.67 57.9681 235.102 57.9681ZM235.769 56.0789C236.285 56.0789 236.732 55.9771 237.111 55.7735C237.49 55.5651 237.781 55.2905 237.985 54.9496C238.193 54.6087 238.297 54.237 238.297 53.8346V52.549C238.216 52.6153 238.079 52.6769 237.885 52.7337C237.696 52.7905 237.483 52.8402 237.246 52.8829C237.009 52.9255 236.775 52.9633 236.543 52.9965C236.311 53.0296 236.11 53.058 235.94 53.0817C235.556 53.1338 235.213 53.219 234.91 53.3374C234.607 53.4558 234.368 53.6215 234.193 53.8346C234.018 54.0429 233.93 54.3128 233.93 54.6442C233.93 55.1177 234.103 55.4752 234.448 55.7167C234.794 55.9581 235.234 56.0789 235.769 56.0789Z" fill="#201F1F"/>
<path d="M225.18 57.961C224.091 57.961 223.157 57.7219 222.375 57.2437C221.599 56.7654 221 56.1049 220.579 55.2621C220.162 54.4146 219.954 53.4392 219.954 52.336C219.954 51.228 220.167 50.2503 220.593 49.4027C221.019 48.5505 221.62 47.8876 222.397 47.4141C223.178 46.9359 224.101 46.6968 225.166 46.6968C226.051 46.6968 226.835 46.8601 227.516 47.1868C228.203 47.5088 228.749 47.9657 229.157 48.5576C229.564 49.1447 229.796 49.8312 229.852 50.6172H227.396C227.296 50.0917 227.06 49.6537 226.686 49.3033C226.316 48.9482 225.822 48.7706 225.201 48.7706C224.676 48.7706 224.214 48.9127 223.817 49.1968C223.419 49.4761 223.109 49.8786 222.887 50.4042C222.669 50.9297 222.56 51.5595 222.56 52.2934C222.56 53.0367 222.669 53.6759 222.887 54.211C223.104 54.7413 223.41 55.1508 223.803 55.4397C224.2 55.7238 224.667 55.8658 225.201 55.8658C225.58 55.8658 225.919 55.7948 226.217 55.6527C226.52 55.506 226.773 55.2953 226.977 55.0206C227.18 54.746 227.32 54.4122 227.396 54.0192H229.852C229.791 54.791 229.564 55.4752 229.171 56.0718C228.778 56.6636 228.243 57.1276 227.566 57.4638C226.889 57.7953 226.094 57.961 225.18 57.961Z" fill="#201F1F"/>
<path d="M213.109 49.7223L210.766 49.978C210.699 49.7413 210.583 49.5187 210.418 49.3104C210.257 49.1021 210.039 48.934 209.765 48.8061C209.49 48.6783 209.154 48.6144 208.756 48.6144C208.221 48.6144 207.772 48.7304 207.407 48.9624C207.047 49.1944 206.87 49.4951 206.875 49.8644C206.87 50.1816 206.986 50.4397 207.222 50.6385C207.464 50.8374 207.862 51.0008 208.415 51.1286L210.276 51.5263C211.308 51.7489 212.075 52.1016 212.576 52.5846C213.083 53.0675 213.339 53.6996 213.343 54.4809C213.339 55.1674 213.137 55.7735 212.74 56.299C212.347 56.8199 211.8 57.2271 211.099 57.5206C210.399 57.8142 209.594 57.961 208.685 57.961C207.35 57.961 206.276 57.6816 205.461 57.1229C204.647 56.5595 204.162 55.7758 204.006 54.7721L206.512 54.5306C206.626 55.023 206.867 55.3947 207.237 55.6456C207.606 55.8966 208.086 56.0221 208.678 56.0221C209.289 56.0221 209.779 55.8966 210.148 55.6456C210.522 55.3947 210.709 55.0846 210.709 54.7152C210.709 54.4027 210.588 54.1447 210.347 53.9411C210.11 53.7375 209.741 53.5812 209.239 53.4723L207.379 53.0817C206.333 52.8639 205.559 52.497 205.057 51.9809C204.555 51.46 204.306 50.8019 204.311 50.0064C204.306 49.3341 204.489 48.7517 204.858 48.2593C205.232 47.7621 205.75 47.3786 206.413 47.1087C207.08 46.8341 207.85 46.6968 208.721 46.6968C209.999 46.6968 211.005 46.969 211.739 47.5135C212.477 48.058 212.934 48.7943 213.109 49.7223Z" fill="#201F1F"/>
<path d="M202.008 43.2031V48.5582H200.047V43.2031H202.008Z" fill="#201F1F"/>
<path d="M192.304 57.7487V46.8396H194.797V48.6578H194.91C195.109 48.028 195.45 47.5427 195.933 47.2018C196.42 46.8562 196.976 46.6833 197.601 46.6833C197.743 46.6833 197.902 46.6905 198.077 46.7047C198.257 46.7141 198.406 46.7307 198.524 46.7544V49.1194C198.416 49.0815 198.243 49.0484 198.006 49.02C197.774 48.9869 197.549 48.9703 197.331 48.9703C196.863 48.9703 196.442 49.0721 196.068 49.2757C195.698 49.4745 195.407 49.7515 195.194 50.1066C194.981 50.4618 194.875 50.8713 194.875 51.3353V57.7487H192.304Z" fill="#201F1F"/>
<path d="M185.28 57.961C184.186 57.961 183.242 57.7337 182.447 57.2792C181.656 56.8199 181.048 56.1712 180.622 55.3331C180.196 54.4903 179.983 53.4984 179.983 52.3573C179.983 51.2351 180.196 50.2503 180.622 49.4027C181.053 48.5505 181.654 47.8876 182.425 47.4141C183.197 46.9359 184.103 46.6968 185.145 46.6968C185.817 46.6968 186.451 46.8057 187.048 47.0235C187.649 47.2365 188.179 47.568 188.638 48.0178C189.102 48.4676 189.467 49.0405 189.732 49.7365C189.997 50.4278 190.13 51.2517 190.13 52.2081V52.9965H181.19V51.2635H187.666C187.661 50.7711 187.554 50.3331 187.346 49.9496C187.138 49.5614 186.847 49.256 186.473 49.0334C186.103 48.8109 185.673 48.6996 185.18 48.6996C184.655 48.6996 184.193 48.8275 183.796 49.0831C183.398 49.3341 183.088 49.6655 182.866 50.0775C182.648 50.4847 182.537 50.9321 182.532 51.4198V52.9326C182.532 53.567 182.648 54.1115 182.88 54.5661C183.112 55.0159 183.436 55.3616 183.853 55.603C184.269 55.8398 184.757 55.9581 185.315 55.9581C185.689 55.9581 186.028 55.9061 186.331 55.8019C186.634 55.693 186.896 55.5344 187.119 55.326C187.341 55.1177 187.509 54.8597 187.623 54.5519L190.023 54.8218C189.872 55.4562 189.583 56.0102 189.157 56.4837C188.735 56.9525 188.196 57.317 187.538 57.5775C186.88 57.8331 186.127 57.961 185.28 57.961Z" fill="#201F1F"/>
<path d="M178.419 46.8397V48.8283H172.149V46.8397H178.419ZM173.697 44.2261H176.267V54.4676C176.267 54.8132 176.319 55.0783 176.424 55.263C176.532 55.4429 176.674 55.566 176.85 55.6323C177.025 55.6986 177.219 55.7318 177.432 55.7318C177.593 55.7318 177.74 55.7199 177.872 55.6962C178.009 55.6726 178.113 55.6513 178.185 55.6323L178.618 57.6423C178.48 57.6896 178.284 57.7417 178.028 57.7985C177.777 57.8553 177.47 57.8885 177.105 57.898C176.461 57.9169 175.882 57.8198 175.366 57.6068C174.85 57.389 174.44 57.0528 174.137 56.5982C173.839 56.1437 173.692 55.5755 173.697 54.8937V44.2261Z" fill="#201F1F"/>
<path d="M167.759 53.1606V46.8396H170.329V57.7487H167.837V55.8098H167.723C167.477 56.4206 167.073 56.9201 166.509 57.3083C165.951 57.6966 165.262 57.8907 164.443 57.8907C163.728 57.8907 163.096 57.7321 162.547 57.4149C162.003 57.0929 161.577 56.6265 161.269 56.0157C160.961 55.4002 160.807 54.6568 160.807 53.7856V46.8396H163.378V53.3879C163.378 54.0792 163.567 54.6284 163.946 55.0356C164.325 55.4428 164.822 55.6464 165.437 55.6464C165.816 55.6464 166.183 55.5541 166.538 55.3694C166.893 55.1848 167.184 54.9101 167.411 54.5456C167.643 54.1762 167.759 53.7146 167.759 53.1606Z" fill="#201F1F"/>
<path d="M148.31 61.8388V46.8388H150.838V48.6428H150.987C151.12 48.3776 151.307 48.0959 151.548 47.7976C151.789 47.4946 152.116 47.2365 152.528 47.0235C152.94 46.8057 153.465 46.6968 154.104 46.6968C154.947 46.6968 155.707 46.9122 156.384 47.3431C157.065 47.7692 157.605 48.4013 158.002 49.2394C158.405 50.0727 158.606 51.0955 158.606 52.3076C158.606 53.5055 158.41 54.5235 158.017 55.3615C157.624 56.1996 157.089 56.8388 156.412 57.2792C155.735 57.7195 154.968 57.9397 154.111 57.9397C153.486 57.9397 152.968 57.8355 152.556 57.6272C152.144 57.4188 151.813 57.1679 151.562 56.8743C151.316 56.576 151.124 56.2943 150.987 56.0292H150.881V61.8388H148.31ZM150.831 52.2934C150.831 52.9989 150.93 53.6168 151.129 54.1471C151.333 54.6774 151.624 55.0917 152.002 55.39C152.386 55.6835 152.85 55.8303 153.394 55.8303C153.962 55.8303 154.438 55.6788 154.821 55.3758C155.205 55.068 155.494 54.649 155.688 54.1187C155.886 53.5836 155.986 52.9752 155.986 52.2934C155.986 51.6163 155.889 51.015 155.695 50.4894C155.501 49.9638 155.212 49.5519 154.828 49.2536C154.445 48.9553 153.967 48.8061 153.394 48.8061C152.845 48.8061 152.379 48.9506 151.995 49.2394C151.612 49.5282 151.321 49.933 151.122 50.4539C150.928 50.9747 150.831 51.5879 150.831 52.2934Z" fill="#201F1F"/>
<path d="M130.365 57.7479V46.8388H132.822V48.6925H132.949C133.177 48.0675 133.553 47.5798 134.078 47.2294C134.604 46.8743 135.231 46.6968 135.96 46.6968C136.699 46.6968 137.321 46.8767 137.828 47.2365C138.339 47.5917 138.699 48.077 138.907 48.6925H139.02C139.262 48.0865 139.669 47.6035 140.242 47.2437C140.819 46.8791 141.503 46.6968 142.294 46.6968C143.297 46.6968 144.116 47.014 144.751 47.6485C145.385 48.2829 145.702 49.2086 145.702 50.4255V57.7479H143.125V50.8232C143.125 50.1461 142.945 49.6513 142.585 49.3388C142.225 49.0216 141.785 48.863 141.264 48.863C140.644 48.863 140.159 49.0571 139.809 49.4454C139.463 49.8289 139.29 50.3284 139.29 50.9439V57.7479H136.77V50.7167C136.77 50.1532 136.599 49.7034 136.258 49.3672C135.922 49.0311 135.482 48.863 134.938 48.863C134.568 48.863 134.232 48.9577 133.929 49.1471C133.626 49.3317 133.385 49.5945 133.205 49.9354C133.025 50.2716 132.935 50.6646 132.935 51.1144V57.7479H130.365Z" fill="#201F1F"/>
<path d="M122.957 57.961C121.892 57.961 120.969 57.7266 120.188 57.2579C119.407 56.7891 118.801 56.1333 118.37 55.2905C117.944 54.4477 117.731 53.4629 117.731 52.336C117.731 51.2091 117.944 50.2219 118.37 49.3743C118.801 48.5268 119.407 47.8687 120.188 47.3999C120.969 46.9312 121.892 46.6968 122.957 46.6968C124.022 46.6968 124.945 46.9312 125.727 47.3999C126.508 47.8687 127.111 48.5268 127.537 49.3743C127.968 50.2219 128.183 51.2091 128.183 52.336C128.183 53.4629 127.968 54.4477 127.537 55.2905C127.111 56.1333 126.508 56.7891 125.727 57.2579C124.945 57.7266 124.022 57.961 122.957 57.961ZM122.972 55.9013C123.549 55.9013 124.032 55.7427 124.42 55.4255C124.808 55.1035 125.097 54.6726 125.286 54.1329C125.48 53.5931 125.577 52.9918 125.577 52.3289C125.577 51.6613 125.48 51.0576 125.286 50.5178C125.097 49.9733 124.808 49.5401 124.42 49.2181C124.032 48.8961 123.549 48.7351 122.972 48.7351C122.38 48.7351 121.887 48.8961 121.495 49.2181C121.106 49.5401 120.815 49.9733 120.621 50.5178C120.432 51.0576 120.337 51.6613 120.337 52.3289C120.337 52.9918 120.432 53.5931 120.621 54.1329C120.815 54.6726 121.106 55.1035 121.495 55.4255C121.887 55.7427 122.38 55.9013 122.972 55.9013Z" fill="#201F1F"/>
<path d="M111.417 57.961C110.328 57.961 109.393 57.7219 108.612 57.2437C107.836 56.7654 107.237 56.1049 106.816 55.2621C106.399 54.4146 106.191 53.4392 106.191 52.336C106.191 51.228 106.404 50.2503 106.83 49.4027C107.256 48.5505 107.857 47.8876 108.633 47.4141C109.414 46.9359 110.337 46.6968 111.403 46.6968C112.288 46.6968 113.071 46.8601 113.753 47.1868C114.439 47.5088 114.986 47.9657 115.393 48.5576C115.8 49.1447 116.032 49.8312 116.089 50.6172H113.632C113.533 50.0917 113.296 49.6537 112.922 49.3033C112.553 48.9482 112.058 48.7706 111.438 48.7706C110.913 48.7706 110.451 48.9127 110.053 49.1968C109.656 49.4761 109.346 49.8786 109.123 50.4042C108.905 50.9297 108.797 51.5595 108.797 52.2934C108.797 53.0367 108.905 53.6759 109.123 54.211C109.341 54.7413 109.646 55.1508 110.039 55.4397C110.437 55.7238 110.903 55.8658 111.438 55.8658C111.817 55.8658 112.155 55.7948 112.453 55.6527C112.756 55.506 113.01 55.2953 113.213 55.0206C113.417 54.746 113.556 54.4122 113.632 54.0192H116.089C116.027 54.791 115.8 55.4752 115.407 56.0718C115.014 56.6636 114.48 57.1276 113.803 57.4638C113.126 57.7953 112.33 57.961 111.417 57.961Z" fill="#201F1F"/>
<path d="M93.7715 57.7487V46.8396H96.2638V48.6578H96.3774C96.5762 48.028 96.9171 47.5427 97.3999 47.2018C97.8875 46.8562 98.4437 46.6833 99.0686 46.6833C99.2106 46.6833 99.3692 46.6905 99.5443 46.7047C99.7242 46.7141 99.8733 46.7307 99.9917 46.7544V49.1194C99.8828 49.0815 99.71 49.0484 99.4733 49.02C99.2414 48.9869 99.0165 48.9703 98.7988 48.9703C98.3301 48.9703 97.9088 49.0721 97.5348 49.2757C97.1656 49.4745 96.8745 49.7515 96.6615 50.1066C96.4484 50.4618 96.3419 50.8713 96.3419 51.3353V57.7487H93.7715Z" fill="#201F1F"/>
<path d="M88.5578 53.1606V46.8396H91.1282V57.7487H88.6359V55.8098H88.5223C88.2761 56.4206 87.8714 56.9201 87.308 57.3083C86.7495 57.6966 86.0607 57.8907 85.2417 57.8907C84.5269 57.8907 83.895 57.7321 83.3459 57.4149C82.8015 57.0929 82.3754 56.6265 82.0677 56.0157C81.76 55.4002 81.6062 54.6568 81.6062 53.7856V46.8396H84.1766V53.3879C84.1766 54.0792 84.366 54.6284 84.7447 55.0356C85.1234 55.4428 85.6205 55.6464 86.2358 55.6464C86.6145 55.6464 86.9814 55.5541 87.3364 55.3694C87.6915 55.1848 87.9826 54.9101 88.2098 54.5456C88.4418 54.1762 88.5578 53.7146 88.5578 53.1606Z" fill="#201F1F"/>
<path d="M74.1985 57.961C73.1334 57.961 72.2103 57.7266 71.4292 57.2579C70.6482 56.7891 70.0422 56.1333 69.6115 55.2905C69.1854 54.4477 68.9724 53.4629 68.9724 52.336C68.9724 51.2091 69.1854 50.2219 69.6115 49.3743C70.0422 48.5268 70.6482 47.8687 71.4292 47.3999C72.2103 46.9312 73.1334 46.6968 74.1985 46.6968C75.2636 46.6968 76.1867 46.9312 76.9678 47.3999C77.7489 47.8687 78.3524 48.5268 78.7785 49.3743C79.2092 50.2219 79.4246 51.2091 79.4246 52.336C79.4246 53.4629 79.2092 54.4477 78.7785 55.2905C78.3524 56.1333 77.7489 56.7891 76.9678 57.2579C76.1867 57.7266 75.2636 57.961 74.1985 57.961ZM74.2127 55.9013C74.7902 55.9013 75.2731 55.7427 75.6613 55.4255C76.0494 55.1035 76.3382 54.6726 76.5275 54.1329C76.7216 53.5931 76.8187 52.9918 76.8187 52.3289C76.8187 51.6613 76.7216 51.0576 76.5275 50.5178C76.3382 49.9733 76.0494 49.5401 75.6613 49.2181C75.2731 48.8961 74.7902 48.7351 74.2127 48.7351C73.621 48.7351 73.1287 48.8961 72.7358 49.2181C72.3476 49.5401 72.0565 49.9733 71.8624 50.5178C71.673 51.0576 71.5784 51.6613 71.5784 52.3289C71.5784 52.9918 71.673 53.5931 71.8624 54.1329C72.0565 54.6726 72.3476 55.1035 72.7358 55.4255C73.1287 55.7427 73.621 55.9013 74.2127 55.9013Z" fill="#201F1F"/>
<path d="M59.8887 61.8396C59.5384 61.8396 59.2142 61.8112 58.9159 61.7544C58.6225 61.7023 58.3881 61.6407 58.213 61.5697L58.8094 59.5669C59.1834 59.6758 59.5171 59.7279 59.8106 59.7231C60.1041 59.7184 60.3621 59.6261 60.5846 59.4461C60.8118 59.2709 61.0035 58.9774 61.1598 58.5654L61.3799 57.976L57.4248 46.8396H60.1515L62.6651 55.0782H62.7787L65.2995 46.8396H68.0332L63.6663 59.0697C63.4628 59.6474 63.1929 60.1422 62.8568 60.5541C62.5207 60.9708 62.1089 61.288 61.6213 61.5058C61.1385 61.7283 60.5609 61.8396 59.8887 61.8396Z" fill="#201F1F"/>
<path d="M51.1815 46.8397V48.8283H44.9116V46.8397H51.1815ZM46.4596 44.2261H49.03V54.4676C49.03 54.8132 49.0821 55.0783 49.1862 55.263C49.2951 55.4429 49.4371 55.566 49.6123 55.6323C49.7874 55.6986 49.9815 55.7318 50.1945 55.7318C50.3555 55.7318 50.5022 55.7199 50.6348 55.6962C50.7721 55.6726 50.8762 55.6513 50.9472 55.6323L51.3803 57.6423C51.2431 57.6896 51.0466 57.7417 50.791 57.7985C50.5401 57.8553 50.2324 57.8885 49.8679 57.898C49.2241 57.9169 48.6442 57.8198 48.1282 57.6068C47.6122 57.389 47.2028 57.0528 46.8998 56.5982C46.6016 56.1437 46.4548 55.5755 46.4596 54.8937V44.2261Z" fill="#201F1F"/>
<path d="M37.3919 57.9681C36.7008 57.9681 36.0783 57.845 35.5245 57.5988C34.9753 57.3478 34.5398 56.9785 34.2179 56.4908C33.9008 56.0031 33.7422 55.4018 33.7422 54.6868C33.7422 54.0713 33.8558 53.5623 34.083 53.1598C34.3102 52.7574 34.6203 52.4354 35.0132 52.1939C35.4061 51.9525 35.8487 51.7702 36.341 51.6471C36.8381 51.5192 37.3517 51.4269 37.8819 51.3701C38.5209 51.3038 39.0393 51.2446 39.4369 51.1925C39.8346 51.1357 40.1233 51.0505 40.3032 50.9368C40.4878 50.8185 40.5801 50.6362 40.5801 50.39V50.3473C40.5801 49.8123 40.4216 49.398 40.1044 49.1044C39.7872 48.8109 39.3304 48.6641 38.734 48.6641C38.1044 48.6641 37.605 48.8014 37.2357 49.076C36.8712 49.3507 36.6251 49.675 36.4973 50.049L34.0972 49.7081C34.2866 49.0453 34.599 48.4913 35.0345 48.0462C35.47 47.5964 36.0026 47.2602 36.6322 47.0377C37.2618 46.8104 37.9576 46.6968 38.7198 46.6968C39.2452 46.6968 39.7683 46.7583 40.289 46.8814C40.8097 47.0045 41.2855 47.2081 41.7163 47.4922C42.147 47.7716 42.4926 48.1527 42.753 48.6357C43.018 49.1187 43.1506 49.7223 43.1506 50.4468V57.7479H40.6796V56.2493H40.5943C40.4381 56.5524 40.218 56.8365 39.934 57.1016C39.6547 57.362 39.302 57.5727 38.876 57.7337C38.4547 57.89 37.96 57.9681 37.3919 57.9681ZM38.0594 56.0789C38.5754 56.0789 39.0227 55.9771 39.4014 55.7735C39.7801 55.5651 40.0713 55.2905 40.2748 54.9496C40.4831 54.6087 40.5872 54.237 40.5872 53.8346V52.549C40.5068 52.6153 40.3695 52.6769 40.1754 52.7337C39.9861 52.7905 39.773 52.8402 39.5363 52.8829C39.2997 52.9255 39.0653 52.9633 38.8334 52.9965C38.6014 53.0296 38.4002 53.058 38.2298 53.0817C37.8464 53.1338 37.5032 53.219 37.2002 53.3374C36.8973 53.4558 36.6582 53.6215 36.4831 53.8346C36.3079 54.0429 36.2203 54.3128 36.2203 54.6442C36.2203 55.1177 36.3931 55.4752 36.7387 55.7167C37.0842 55.9581 37.5245 56.0789 38.0594 56.0789Z" fill="#201F1F"/>
<path d="M342.153 29.3253L342.146 26.2216H342.558L346.478 21.8395H349.481L344.66 27.2088H344.127L342.153 29.3253ZM339.81 32.7486V18.2031H342.38V32.7486H339.81ZM346.655 32.7486L343.105 27.7841L344.837 25.973L349.73 32.7486H346.655Z" fill="#201F1F"/>
<path d="M332.402 32.961C331.337 32.961 330.414 32.7266 329.633 32.2579C328.852 31.7891 328.246 31.1333 327.815 30.2905C327.389 29.4477 327.176 28.4629 327.176 27.336C327.176 26.2091 327.389 25.2219 327.815 24.3743C328.246 23.5268 328.852 22.8687 329.633 22.3999C330.414 21.9312 331.337 21.6968 332.402 21.6968C333.467 21.6968 334.391 21.9312 335.172 22.3999C335.953 22.8687 336.556 23.5268 336.982 24.3743C337.413 25.2219 337.628 26.2091 337.628 27.336C337.628 28.4629 337.413 29.4477 336.982 30.2905C336.556 31.1333 335.953 31.7891 335.172 32.2579C334.391 32.7266 333.467 32.961 332.402 32.961ZM332.417 30.9013C332.994 30.9013 333.477 30.7427 333.865 30.4255C334.253 30.1035 334.542 29.6726 334.731 29.1329C334.925 28.5931 335.023 27.9918 335.023 27.3289C335.023 26.6613 334.925 26.0576 334.731 25.5178C334.542 24.9733 334.253 24.5401 333.865 24.2181C333.477 23.8961 332.994 23.7351 332.417 23.7351C331.825 23.7351 331.333 23.8961 330.94 24.2181C330.551 24.5401 330.26 24.9733 330.066 25.5178C329.877 26.0576 329.782 26.6613 329.782 27.3289C329.782 27.9918 329.877 28.5931 330.066 29.1329C330.26 29.6726 330.551 30.1035 330.94 30.4255C331.333 30.7427 331.825 30.9013 332.417 30.9013Z" fill="#201F1F"/>
<path d="M320.237 32.961C319.172 32.961 318.249 32.7266 317.468 32.2579C316.687 31.7891 316.081 31.1333 315.65 30.2905C315.224 29.4477 315.011 28.4629 315.011 27.336C315.011 26.2091 315.224 25.2219 315.65 24.3743C316.081 23.5268 316.687 22.8687 317.468 22.3999C318.249 21.9312 319.172 21.6968 320.237 21.6968C321.302 21.6968 322.226 21.9312 323.007 22.3999C323.788 22.8687 324.391 23.5268 324.817 24.3743C325.248 25.2219 325.463 26.2091 325.463 27.336C325.463 28.4629 325.248 29.4477 324.817 30.2905C324.391 31.1333 323.788 31.7891 323.007 32.2579C322.226 32.7266 321.302 32.961 320.237 32.961ZM320.252 30.9013C320.829 30.9013 321.312 30.7427 321.7 30.4255C322.088 30.1035 322.377 29.6726 322.566 29.1329C322.76 28.5931 322.857 27.9918 322.857 27.3289C322.857 26.6613 322.76 26.0576 322.566 25.5178C322.377 24.9733 322.088 24.5401 321.7 24.2181C321.312 23.8961 320.829 23.7351 320.252 23.7351C319.66 23.7351 319.167 23.8961 318.775 24.2181C318.386 24.5401 318.095 24.9733 317.901 25.5178C317.712 26.0576 317.617 26.6613 317.617 27.3289C317.617 27.9918 317.712 28.5931 317.901 29.1329C318.095 29.6726 318.386 30.1035 318.775 30.4255C319.167 30.7427 319.66 30.9013 320.252 30.9013Z" fill="#201F1F"/>
<path d="M302.998 32.7486V18.2031H305.569V23.6435H305.675C305.808 23.3783 305.995 23.0966 306.236 22.7983C306.478 22.4953 306.804 22.2372 307.216 22.0241C307.628 21.8063 308.153 21.6974 308.792 21.6974C309.635 21.6974 310.395 21.9129 311.072 22.3438C311.753 22.7699 312.293 23.402 312.691 24.2401C313.093 25.0734 313.294 26.0961 313.294 27.3082C313.294 28.5062 313.098 29.5241 312.705 30.3622C312.312 31.2003 311.777 31.8395 311.1 32.2798C310.423 32.7202 309.656 32.9403 308.8 32.9403C308.175 32.9403 307.656 32.8362 307.245 32.6278C306.833 32.4195 306.501 32.1686 306.25 31.875C306.004 31.5767 305.813 31.295 305.675 31.0298H305.526V32.7486H302.998ZM305.519 27.294C305.519 27.9995 305.618 28.6174 305.817 29.1477C306.021 29.678 306.312 30.0923 306.691 30.3906C307.074 30.6842 307.538 30.831 308.082 30.831C308.65 30.831 309.126 30.6795 309.51 30.3764C309.893 30.0687 310.182 29.6496 310.376 29.1193C310.575 28.5843 310.674 27.9759 310.674 27.294C310.674 26.617 310.577 26.0156 310.383 25.4901C310.189 24.9645 309.9 24.5526 309.517 24.2543C309.133 23.956 308.655 23.8068 308.082 23.8068C307.533 23.8068 307.067 23.9512 306.684 24.2401C306.3 24.5289 306.009 24.9337 305.81 25.4545C305.616 25.9754 305.519 26.5885 305.519 27.294Z" fill="#201F1F"/>
<path d="M290.901 32.961C289.807 32.961 288.863 32.7337 288.067 32.2792C287.277 31.8199 286.669 31.1712 286.243 30.3331C285.817 29.4903 285.604 28.4984 285.604 27.3573C285.604 26.2351 285.817 25.2503 286.243 24.4027C286.673 23.5505 287.275 22.8876 288.046 22.4141C288.818 21.9359 289.724 21.6968 290.766 21.6968C291.438 21.6968 292.072 21.8057 292.669 22.0235C293.27 22.2365 293.8 22.568 294.259 23.0178C294.723 23.4676 295.088 24.0405 295.353 24.7365C295.618 25.4278 295.75 26.2517 295.75 27.2081V27.9965H286.811V26.2635H293.286C293.282 25.7711 293.175 25.3331 292.967 24.9496C292.759 24.5614 292.467 24.256 292.094 24.0334C291.724 23.8109 291.294 23.6996 290.801 23.6996C290.276 23.6996 289.814 23.8275 289.417 24.0831C289.019 24.3341 288.709 24.6655 288.486 25.0775C288.269 25.4847 288.157 25.9321 288.153 26.4198V27.9326C288.153 28.567 288.269 29.1116 288.501 29.5661C288.733 30.0159 289.057 30.3616 289.473 30.603C289.89 30.8398 290.378 30.9581 290.936 30.9581C291.31 30.9581 291.649 30.9061 291.952 30.8019C292.254 30.693 292.517 30.5344 292.74 30.326C292.962 30.1177 293.13 29.8597 293.244 29.5519L295.644 29.8218C295.492 30.4562 295.204 31.0102 294.778 31.4837C294.356 31.9525 293.817 32.317 293.159 32.5775C292.501 32.8331 291.748 32.961 290.901 32.961Z" fill="#201F1F"/>
<path d="M276.38 26.3565V32.7486H273.809V18.2031H276.323V23.6932H276.451C276.706 23.0777 277.102 22.5923 277.637 22.2372C278.176 21.8774 278.863 21.6974 279.696 21.6974C280.453 21.6974 281.114 21.8561 281.677 22.1733C282.24 22.4905 282.676 22.9545 282.983 23.5653C283.296 24.1761 283.452 24.9219 283.452 25.8026V32.7486H280.882V26.2003C280.882 25.4664 280.692 24.8958 280.314 24.4886C279.94 24.0767 279.414 23.8707 278.737 23.8707C278.283 23.8707 277.876 23.9702 277.516 24.169C277.161 24.3632 276.882 24.6449 276.678 25.0142C276.479 25.3835 276.38 25.831 276.38 26.3565Z" fill="#201F1F"/>
<path d="M271.425 21.8397V23.8283H265.155V21.8397H271.425ZM266.703 19.2261H269.274V29.4676C269.274 29.8132 269.326 30.0783 269.43 30.263C269.539 30.4429 269.681 30.566 269.856 30.6323C270.031 30.6986 270.225 30.7318 270.438 30.7318C270.599 30.7318 270.746 30.7199 270.878 30.6962C271.016 30.6726 271.12 30.6513 271.191 30.6323L271.624 32.6423C271.487 32.6896 271.29 32.7417 271.035 32.7985C270.784 32.8553 270.476 32.8885 270.112 32.8979C269.468 32.9169 268.888 32.8198 268.372 32.6068C267.856 32.389 267.446 32.0528 267.143 31.5982C266.845 31.1437 266.699 30.5755 266.703 29.8937V19.2261Z" fill="#201F1F"/>
<path d="M243.074 32.7479V21.8388H245.531V23.6925H245.659C245.886 23.0675 246.262 22.5798 246.788 22.2294C247.313 21.8743 247.94 21.6968 248.669 21.6968C249.408 21.6968 250.03 21.8767 250.537 22.2365C251.048 22.5917 251.408 23.077 251.616 23.6925H251.73C251.971 23.0865 252.378 22.6035 252.951 22.2437C253.529 21.8791 254.213 21.6968 255.003 21.6968C256.007 21.6968 256.826 22.014 257.46 22.6485C258.094 23.283 258.411 24.2086 258.411 25.4255V32.7479H255.834V25.8232C255.834 25.1461 255.654 24.6513 255.294 24.3388C254.934 24.0216 254.494 23.863 253.974 23.863C253.353 23.863 252.868 24.0571 252.518 24.4454C252.172 24.8289 252 25.3284 252 25.9439V32.7479H249.479V25.7167C249.479 25.1532 249.308 24.7034 248.968 24.3672C248.631 24.0311 248.191 23.863 247.647 23.863C247.278 23.863 246.941 23.9577 246.639 24.1471C246.336 24.3317 246.094 24.5945 245.914 24.9354C245.734 25.2716 245.644 25.6646 245.644 26.1144V32.7479H243.074Z" fill="#201F1F"/>
<path d="M235.666 32.961C234.601 32.961 233.678 32.7266 232.897 32.2579C232.116 31.7891 231.51 31.1333 231.079 30.2905C230.653 29.4477 230.44 28.4629 230.44 27.336C230.44 26.2091 230.653 25.2219 231.079 24.3743C231.51 23.5268 232.116 22.8687 232.897 22.3999C233.678 21.9312 234.601 21.6968 235.666 21.6968C236.731 21.6968 237.654 21.9312 238.436 22.3999C239.217 22.8687 239.82 23.5268 240.246 24.3743C240.677 25.2219 240.892 26.2091 240.892 27.336C240.892 28.4629 240.677 29.4477 240.246 30.2905C239.82 31.1333 239.217 31.7891 238.436 32.2579C237.654 32.7266 236.731 32.961 235.666 32.961ZM235.68 30.9013C236.258 30.9013 236.741 30.7427 237.129 30.4255C237.517 30.1035 237.806 29.6726 237.995 29.1329C238.189 28.5931 238.286 27.9918 238.286 27.3289C238.286 26.6613 238.189 26.0576 237.995 25.5178C237.806 24.9733 237.517 24.5401 237.129 24.2181C236.741 23.8961 236.258 23.7351 235.68 23.7351C235.089 23.7351 234.596 23.8961 234.204 24.2181C233.815 24.5401 233.524 24.9733 233.33 25.5178C233.141 26.0576 233.046 26.6613 233.046 27.3289C233.046 27.9918 233.141 28.5931 233.33 29.1329C233.524 29.6726 233.815 30.1035 234.204 30.4255C234.596 30.7427 235.089 30.9013 235.68 30.9013Z" fill="#201F1F"/>
<path d="M223.43 32.7487V21.8396H225.922V23.6578H226.036C226.235 23.028 226.576 22.5427 227.058 22.2018C227.546 21.8562 228.102 21.6833 228.727 21.6833C228.869 21.6833 229.028 21.6905 229.203 21.7047C229.383 21.7141 229.532 21.7307 229.65 21.7544V24.1194C229.541 24.0815 229.368 24.0484 229.132 24.02C228.9 23.9869 228.675 23.9703 228.457 23.9703C227.989 23.9703 227.567 24.0721 227.193 24.2757C226.824 24.4745 226.533 24.7515 226.32 25.1066C226.107 25.4618 226 25.8713 226 26.3353V32.7487H223.43Z" fill="#201F1F"/>
<path d="M221.417 21.8402V23.8288H214.969V21.8402H221.417ZM216.581 32.7492V20.8103C216.581 20.0764 216.733 19.4656 217.036 18.9779C217.343 18.4902 217.755 18.1257 218.271 17.8842C218.787 17.6427 219.36 17.522 219.989 17.522C220.434 17.522 220.83 17.5575 221.175 17.6285C221.521 17.6995 221.776 17.7635 221.942 17.8203L221.431 19.8089C221.322 19.7758 221.185 19.7426 221.019 19.7095C220.853 19.6716 220.669 19.6527 220.465 19.6527C219.987 19.6527 219.649 19.7687 219.45 20.0007C219.256 20.2279 219.159 20.5546 219.159 20.9808V32.7492H216.581Z" fill="#201F1F"/>
<path d="M203.908 32.961C202.815 32.961 201.871 32.7337 201.075 32.2792C200.285 31.8199 199.676 31.1712 199.25 30.3331C198.824 29.4903 198.611 28.4984 198.611 27.3573C198.611 26.2351 198.824 25.2503 199.25 24.4027C199.681 23.5505 200.282 22.8876 201.054 22.4141C201.826 21.9359 202.732 21.6968 203.774 21.6968C204.446 21.6968 205.08 21.8057 205.676 22.0235C206.278 22.2365 206.808 22.568 207.267 23.0178C207.731 23.4676 208.095 24.0405 208.361 24.7365C208.626 25.4278 208.758 26.2517 208.758 27.2081V27.9965H199.818V26.2635H206.294C206.29 25.7711 206.183 25.3331 205.975 24.9496C205.766 24.5614 205.475 24.256 205.101 24.0334C204.732 23.8109 204.301 23.6996 203.809 23.6996C203.284 23.6996 202.822 23.8275 202.424 24.0831C202.027 24.3341 201.717 24.6655 201.494 25.0775C201.276 25.4847 201.165 25.9321 201.16 26.4198V27.9326C201.16 28.567 201.276 29.1116 201.508 29.5661C201.74 30.0159 202.065 30.3616 202.481 30.603C202.898 30.8398 203.385 30.9581 203.944 30.9581C204.318 30.9581 204.656 30.9061 204.959 30.8019C205.262 30.693 205.525 30.5344 205.748 30.326C205.97 30.1177 206.138 29.8597 206.252 29.5519L208.652 29.8218C208.5 30.4562 208.211 31.0102 207.785 31.4837C207.364 31.9525 206.824 32.317 206.166 32.5775C205.508 32.8331 204.756 32.961 203.908 32.961Z" fill="#201F1F"/>
<path d="M190.533 32.9403C189.676 32.9403 188.909 32.7202 188.232 32.2798C187.555 31.8395 187.02 31.2003 186.627 30.3622C186.234 29.5241 186.038 28.5062 186.038 27.3082C186.038 26.0961 186.237 25.0734 186.634 24.2401C187.037 23.402 187.579 22.7699 188.26 22.3438C188.942 21.9129 189.702 21.6974 190.54 21.6974C191.179 21.6974 191.704 21.8063 192.116 22.0241C192.528 22.2372 192.854 22.4953 193.096 22.7983C193.337 23.0966 193.524 23.3783 193.657 23.6435H193.763V18.2031H196.341V32.7486H193.813V31.0298H193.657C193.524 31.295 193.333 31.5767 193.082 31.875C192.831 32.1686 192.499 32.4195 192.088 32.6278C191.676 32.8362 191.157 32.9403 190.533 32.9403ZM191.25 30.831C191.794 30.831 192.258 30.6842 192.641 30.3906C193.025 30.0923 193.316 29.678 193.515 29.1477C193.714 28.6174 193.813 27.9995 193.813 27.294C193.813 26.5885 193.714 25.9754 193.515 25.4545C193.321 24.9337 193.032 24.5289 192.649 24.2401C192.27 23.9512 191.804 23.8068 191.25 23.8068C190.677 23.8068 190.199 23.956 189.815 24.2543C189.432 24.5526 189.143 24.9645 188.949 25.4901C188.755 26.0156 188.658 26.617 188.658 27.294C188.658 27.9759 188.755 28.5843 188.949 29.1193C189.148 29.6496 189.439 30.0687 189.823 30.3764C190.211 30.6795 190.686 30.831 191.25 30.831Z" fill="#201F1F"/>
<path d="M179.077 32.961C178.012 32.961 177.089 32.7266 176.308 32.2579C175.527 31.7891 174.921 31.1333 174.49 30.2905C174.064 29.4477 173.851 28.4629 173.851 27.336C173.851 26.2091 174.064 25.2219 174.49 24.3743C174.921 23.5268 175.527 22.8687 176.308 22.3999C177.089 21.9312 178.012 21.6968 179.077 21.6968C180.142 21.6968 181.065 21.9312 181.846 22.3999C182.628 22.8687 183.231 23.5268 183.657 24.3743C184.088 25.2219 184.303 26.2091 184.303 27.336C184.303 28.4629 184.088 29.4477 183.657 30.2905C183.231 31.1333 182.628 31.7891 181.846 32.2579C181.065 32.7266 180.142 32.961 179.077 32.961ZM179.091 30.9013C179.669 30.9013 180.152 30.7427 180.54 30.4255C180.928 30.1035 181.217 29.6726 181.406 29.1329C181.6 28.5931 181.697 27.9918 181.697 27.3289C181.697 26.6613 181.6 26.0576 181.406 25.5178C181.217 24.9733 180.928 24.5401 180.54 24.2181C180.152 23.8961 179.669 23.7351 179.091 23.7351C178.5 23.7351 178.007 23.8961 177.614 24.2181C177.226 24.5401 176.935 24.9733 176.741 25.5178C176.552 26.0576 176.457 26.6613 176.457 27.3289C176.457 27.9918 176.552 28.5931 176.741 29.1329C176.935 29.6726 177.226 30.1035 177.614 30.4255C178.007 30.7427 178.5 30.9013 179.091 30.9013Z" fill="#201F1F"/>
<path d="M172.021 23.1107H169.365C169.29 22.6751 169.15 22.2892 168.946 21.953C168.743 21.6121 168.49 21.3233 168.187 21.0865C167.884 20.8498 167.538 20.6722 167.15 20.5539C166.767 20.4308 166.352 20.3692 165.907 20.3692C165.117 20.3692 164.416 20.5681 163.806 20.9658C163.195 21.3588 162.717 21.9364 162.371 22.6988C162.026 23.4563 161.853 24.382 161.853 25.4757C161.853 26.5884 162.026 27.5259 162.371 28.2882C162.722 29.0458 163.2 29.6187 163.806 30.007C164.416 30.3905 165.114 30.5823 165.9 30.5823C166.336 30.5823 166.743 30.5255 167.122 30.4118C167.505 30.2935 167.848 30.1206 168.151 29.8934C168.459 29.6661 168.717 29.3867 168.925 29.0553C169.138 28.7238 169.285 28.3451 169.365 27.9189L172.021 27.9331C171.922 28.6244 171.706 29.2731 171.375 29.8792C171.048 30.4852 170.62 31.0202 170.09 31.4843C169.56 31.9435 168.939 32.3034 168.229 32.5638C167.519 32.8195 166.731 32.9473 165.865 32.9473C164.587 32.9473 163.446 32.6514 162.442 32.0595C161.439 31.4677 160.648 30.6131 160.071 29.4956C159.493 28.3782 159.204 27.0382 159.204 25.4757C159.204 23.9085 159.495 22.5685 160.078 21.4559C160.66 20.3384 161.453 19.4838 162.456 18.8919C163.46 18.3001 164.596 18.0042 165.865 18.0042C166.674 18.0042 167.427 18.1178 168.123 18.3451C168.819 18.5723 169.439 18.9061 169.983 19.3465C170.528 19.7821 170.975 20.3171 171.325 20.9516C171.68 21.5813 171.912 22.301 172.021 23.1107Z" fill="#201F1F"/>
<path d="M141.609 32.7486V18.2031H147.062C148.179 18.2031 149.116 18.3973 149.874 18.7855C150.636 19.1738 151.211 19.7183 151.599 20.419C151.992 21.1151 152.189 21.9271 152.189 22.8551C152.189 23.7879 151.99 24.5975 151.592 25.2841C151.199 25.9659 150.619 26.4938 149.853 26.8679C149.086 27.2372 148.144 27.4219 147.026 27.4219H143.142V25.2344H146.671C147.325 25.2344 147.86 25.1444 148.276 24.9645C148.693 24.7798 149 24.5123 149.199 24.1619C149.403 23.8068 149.505 23.3712 149.505 22.8551C149.505 22.339 149.403 21.8987 149.199 21.5341C148.996 21.1648 148.686 20.8854 148.269 20.696C147.853 20.5019 147.315 20.4048 146.657 20.4048H144.243V32.7486H141.609ZM149.121 26.1577L152.721 32.7486H149.782L146.245 26.1577H149.121Z" fill="#201F1F"/>
<path d="M131.522 27.8621H133.908L135.321 29.6945L136.33 30.8877L138.751 33.9985H136.195L134.547 31.9104L133.844 30.9161L131.522 27.8621ZM139.099 25.4757C139.099 27.043 138.805 28.3853 138.218 29.5027C137.636 30.6154 136.841 31.4677 135.833 32.0595C134.829 32.6514 133.69 32.9473 132.417 32.9473C131.144 32.9473 130.003 32.6514 128.995 32.0595C127.991 31.463 127.196 30.6083 126.609 29.4956C126.026 28.3782 125.735 27.0382 125.735 25.4757C125.735 23.9085 126.026 22.5685 126.609 21.4559C127.196 20.3384 127.991 19.4838 128.995 18.8919C130.003 18.3001 131.144 18.0042 132.417 18.0042C133.69 18.0042 134.829 18.3001 135.833 18.8919C136.841 19.4838 137.636 20.3384 138.218 21.4559C138.805 22.5685 139.099 23.9085 139.099 25.4757ZM136.45 25.4757C136.45 24.3725 136.278 23.4421 135.932 22.6845C135.591 21.9222 135.118 21.347 134.512 20.9587C133.906 20.5657 133.208 20.3692 132.417 20.3692C131.627 20.3692 130.928 20.5657 130.322 20.9587C129.716 21.347 129.241 21.9222 128.895 22.6845C128.554 23.4421 128.384 24.3725 128.384 25.4757C128.384 26.579 128.554 27.5117 128.895 28.274C129.241 29.0316 129.716 29.6069 130.322 29.9999C130.928 30.3881 131.627 30.5823 132.417 30.5823C133.208 30.5823 133.906 30.3881 134.512 29.9999C135.118 29.6069 135.591 29.0316 135.932 28.274C136.278 27.5117 136.45 26.579 136.45 25.4757Z" fill="#201F1F"/>
<path d="M114.007 32.961C112.913 32.961 111.969 32.7337 111.173 32.2792C110.383 31.8199 109.775 31.1712 109.349 30.3331C108.922 29.4903 108.709 28.4984 108.709 27.3573C108.709 26.2351 108.922 25.2503 109.349 24.4027C109.779 23.5505 110.38 22.8876 111.152 22.4141C111.924 21.9359 112.83 21.6968 113.872 21.6968C114.544 21.6968 115.178 21.8057 115.775 22.0235C116.376 22.2365 116.906 22.568 117.365 23.0178C117.829 23.4676 118.194 24.0405 118.459 24.7365C118.724 25.4278 118.856 26.2517 118.856 27.2081V27.9965H109.917V26.2635H116.392C116.388 25.7711 116.281 25.3331 116.073 24.9496C115.865 24.5614 115.573 24.256 115.199 24.0334C114.83 23.8109 114.399 23.6996 113.907 23.6996C113.382 23.6996 112.92 23.8275 112.523 24.0831C112.125 24.3341 111.815 24.6655 111.592 25.0775C111.375 25.4847 111.263 25.9321 111.259 26.4198V27.9326C111.259 28.567 111.375 29.1116 111.607 29.5661C111.839 30.0159 112.163 30.3616 112.579 30.603C112.996 30.8398 113.483 30.9581 114.042 30.9581C114.416 30.9581 114.755 30.9061 115.057 30.8019C115.36 30.693 115.623 30.5344 115.846 30.326C116.068 30.1177 116.236 29.8597 116.35 29.5519L118.75 29.8218C118.598 30.4562 118.31 31.0102 117.884 31.4837C117.462 31.9525 116.923 32.317 116.265 32.5775C115.607 32.8331 114.854 32.961 114.007 32.961Z" fill="#201F1F"/>
<path d="M99.486 26.3565V32.7486H96.9155V18.2031H99.4292V23.6932H99.557C99.8126 23.0777 100.208 22.5923 100.743 22.2372C101.282 21.8774 101.969 21.6974 102.802 21.6974C103.559 21.6974 104.22 21.8561 104.783 22.1733C105.346 22.4905 105.782 22.9545 106.09 23.5653C106.402 24.1761 106.558 24.9219 106.558 25.8026V32.7486H103.988V26.2003C103.988 25.4664 103.798 24.8958 103.42 24.4886C103.046 24.0767 102.52 23.8707 101.843 23.8707C101.389 23.8707 100.982 23.9702 100.622 24.169C100.267 24.3632 99.9878 24.6449 99.7842 25.0142C99.5854 25.3835 99.486 25.831 99.486 26.3565Z" fill="#201F1F"/>
<path d="M94.5311 21.8397V23.8283H88.2612V21.8397H94.5311ZM89.8092 19.2261H92.3796V29.4676C92.3796 29.8132 92.4317 30.0783 92.5358 30.263C92.6447 30.4429 92.7867 30.566 92.9619 30.6323C93.137 30.6986 93.3311 30.7318 93.5441 30.7318C93.7051 30.7318 93.8518 30.7199 93.9844 30.6962C94.1217 30.6726 94.2258 30.6513 94.2968 30.6323L94.73 32.6423C94.5927 32.6896 94.3962 32.7417 94.1406 32.7985C93.8897 32.8553 93.582 32.8885 93.2175 32.8979C92.5737 32.9169 91.9938 32.8198 91.4778 32.6068C90.9619 32.389 90.5524 32.0528 90.2494 31.5982C89.9512 31.1437 89.8044 30.5755 89.8092 29.8937V19.2261Z" fill="#201F1F"/>
<path d="M81.9752 21.8397V23.8283H75.7053V21.8397H81.9752ZM77.2533 19.2261H79.8237V29.4676C79.8237 29.8132 79.8758 30.0783 79.9799 30.263C80.0888 30.4429 80.2308 30.566 80.406 30.6323C80.5811 30.6986 80.7752 30.7318 80.9882 30.7318C81.1492 30.7318 81.2959 30.7199 81.4285 30.6962C81.5657 30.6726 81.6699 30.6513 81.7409 30.6323L82.174 32.6423C82.0368 32.6896 81.8403 32.7417 81.5847 32.7985C81.3338 32.8553 81.0261 32.8885 80.6616 32.8979C80.0178 32.9169 79.4379 32.8198 78.9219 32.6068C78.4059 32.389 77.9965 32.0528 77.6935 31.5982C77.3953 31.1437 77.2485 30.5755 77.2533 29.8937V19.2261Z" fill="#201F1F"/>
<path d="M66.9152 26.3559V32.7479H64.3447V21.8388H66.8016V23.6925H66.9294C67.1803 23.0817 67.5803 22.5964 68.1294 22.2365C68.6832 21.8767 69.3673 21.6968 70.1815 21.6968C70.9342 21.6968 71.5898 21.8578 72.1484 22.1797C72.7117 22.5017 73.1472 22.9681 73.4549 23.5789C73.7673 24.1897 73.9212 24.9307 73.9164 25.8019V32.7479H71.346V26.1996C71.346 25.4705 71.1566 24.8999 70.7779 24.488C70.404 24.076 69.8856 23.8701 69.2229 23.8701C68.7732 23.8701 68.3732 23.9695 68.0229 24.1684C67.6773 24.3625 67.4051 24.6442 67.2063 25.0135C67.0122 25.3829 66.9152 25.8303 66.9152 26.3559Z" fill="#201F1F"/>
<path d="M59.131 32.7486V21.8395H61.702V32.7486H59.131ZM60.4236 20.2912C60.0164 20.2912 59.666 20.1563 59.3725 19.8864C59.0789 19.6117 58.9321 19.2827 58.9321 18.8991C58.9321 18.5109 59.0789 18.1818 59.3725 17.9119C59.666 17.6373 60.0164 17.5 60.4236 17.5C60.8355 17.5 61.1859 17.6373 61.4747 17.9119C61.7683 18.1818 61.9151 18.5109 61.9151 18.8991C61.9151 19.2827 61.7683 19.6117 61.4747 19.8864C61.1859 20.1563 60.8355 20.2912 60.4236 20.2912Z" fill="#201F1F"/>
<path d="M51.7232 32.961C50.6581 32.961 49.735 32.7266 48.9539 32.2579C48.1728 31.7891 47.5669 31.1333 47.1361 30.2905C46.7101 29.4477 46.4971 28.4629 46.4971 27.336C46.4971 26.2091 46.7101 25.2219 47.1361 24.3743C47.5669 23.5268 48.1728 22.8687 48.9539 22.3999C49.735 21.9312 50.6581 21.6968 51.7232 21.6968C52.7883 21.6968 53.7114 21.9312 54.4924 22.3999C55.2735 22.8687 55.8771 23.5268 56.3031 24.3743C56.7339 25.2219 56.9493 26.2091 56.9493 27.336C56.9493 28.4629 56.7339 29.4477 56.3031 30.2905C55.8771 31.1333 55.2735 31.7891 54.4924 32.2579C53.7114 32.7266 52.7883 32.961 51.7232 32.961ZM51.7374 30.9013C52.3149 30.9013 52.7977 30.7427 53.1859 30.4255C53.5741 30.1035 53.8628 29.6726 54.0522 29.1329C54.2463 28.5931 54.3433 27.9918 54.3433 27.3289C54.3433 26.6613 54.2463 26.0576 54.0522 25.5178C53.8628 24.9733 53.5741 24.5401 53.1859 24.2181C52.7977 23.8961 52.3149 23.7351 51.7374 23.7351C51.1456 23.7351 50.6533 23.8961 50.2604 24.2181C49.8723 24.5401 49.5811 24.9733 49.387 25.5178C49.1977 26.0576 49.103 26.6613 49.103 27.3289C49.103 27.9918 49.1977 28.5931 49.387 29.1329C49.5811 29.6726 49.8723 30.1035 50.2604 30.4255C50.6533 30.7427 51.1456 30.9013 51.7374 30.9013Z" fill="#201F1F"/>
<path d="M34.3672 32.7486V18.2031H39.8205C40.9377 18.2031 41.875 18.4115 42.6324 18.8281C43.3945 19.2448 43.9697 19.8177 44.3578 20.5469C44.7508 21.2713 44.9472 22.0952 44.9472 23.0185C44.9472 23.9512 44.7508 24.7798 44.3578 25.5043C43.9649 26.2287 43.3851 26.7992 42.6182 27.2159C41.8513 27.6278 40.9069 27.8338 39.785 27.8338H36.1708V25.6676H39.43C40.0832 25.6676 40.6182 25.554 41.0347 25.3267C41.4513 25.0994 41.759 24.7869 41.9578 24.3892C42.1614 23.9915 42.2631 23.5346 42.2631 23.0185C42.2631 22.5024 42.1614 22.0478 41.9578 21.6548C41.759 21.2618 41.4489 20.9564 41.0276 20.7386C40.6111 20.5161 40.0738 20.4048 39.4158 20.4048H37.0015V32.7486H34.3672Z" fill="#201F1F"/>
<defs>
<filter id="filter0_f_6415_3982" x="395.701" y="235.596" width="111.603" height="47.6904" filterUnits="userSpaceOnUse" color-interpolation-filters="sRGB">
<feFlood flood-opacity="0" result="BackgroundImageFix"/>
<feBlend mode="normal" in="SourceGraphic" in2="BackgroundImageFix" result="shape"/>
<feGaussianBlur stdDeviation="2" result="effect1_foregroundBlur_6415_3982"/>
</filter>
<filter id="filter1_f_6415_3982" x="423.203" y="163.289" width="24.5012" height="30.0066" filterUnits="userSpaceOnUse" color-interpolation-filters="sRGB">
<feFlood flood-opacity="0" result="BackgroundImageFix"/>
<feBlend mode="normal" in="SourceGraphic" in2="BackgroundImageFix" result="shape"/>
<feGaussianBlur stdDeviation="2" result="effect1_foregroundBlur_6415_3982"/>
</filter>
<filter id="filter2_f_6415_3982" x="460.79" y="163.289" width="24.5012" height="30.0066" filterUnits="userSpaceOnUse" color-interpolation-filters="sRGB">
<feFlood flood-opacity="0" result="BackgroundImageFix"/>
<feBlend mode="normal" in="SourceGraphic" in2="BackgroundImageFix" result="shape"/>
<feGaussianBlur stdDeviation="2" result="effect1_foregroundBlur_6415_3982"/>
</filter>
<filter id="filter3_f_6415_3982" x="552.07" y="156.215" width="20.5723" height="44.1536" filterUnits="userSpaceOnUse" color-interpolation-filters="sRGB">
<feFlood flood-opacity="0" result="BackgroundImageFix"/>
<feBlend mode="normal" in="SourceGraphic" in2="BackgroundImageFix" result="shape"/>
<feGaussianBlur stdDeviation="2" result="effect1_foregroundBlur_6415_3982"/>
</filter>
<filter id="filter4_f_6415_3982" x="335.197" y="156.215" width="20.5723" height="44.1536" filterUnits="userSpaceOnUse" color-interpolation-filters="sRGB">
<feFlood flood-opacity="0" result="BackgroundImageFix"/>
<feBlend mode="normal" in="SourceGraphic" in2="BackgroundImageFix" result="shape"/>
<feGaussianBlur stdDeviation="2" result="effect1_foregroundBlur_6415_3982"/>
</filter>
<linearGradient id="paint0_linear_6415_3982" x1="520.317" y1="271.034" x2="520.317" y2="300.507" gradientUnits="userSpaceOnUse">
<stop stop-color="#FF2A80"/>
<stop offset="1" stop-color="#00636C"/>
</linearGradient>
</defs>
</svg>
