<svg width="32" height="32" viewBox="0 0 32 32" fill="none" xmlns="http://www.w3.org/2000/svg">
<g clip-path="url(#clip0_4377_93905)">
<path d="M0.759766 22.0894V26.6694H3.80977V25.1394H2.28977V23.6194H3.80977V25.1394H6.85977V26.6694H9.90976V28.1894H11.4298V29.7094H9.90976V31.2394H14.4798V29.7094H12.9598V28.1894H14.4798V26.6694H17.5298V25.1394H20.5698V23.6194H23.6198V22.0894H26.6698V20.5694H29.7198V22.0894H31.2398V17.5194H29.7198V15.9994H26.6698V12.9494H28.1898V6.85938H26.6698V8.37937H25.1498V9.89937H26.6698V11.4294H25.1498V12.9494H22.0998V14.4794H19.0498V15.9994H15.9998V17.5194H12.9598V19.0494H11.4298V17.5194H9.90976V15.9994H6.85977V14.4794H3.80977V12.9494H2.28977V11.4294H3.80977V12.9494H6.85977V14.4794H9.90976V15.9994H15.9998V14.4794H19.0498V12.9494H22.0998V11.4294H25.1498V9.89937H20.5698V11.4294H17.5298V12.9494H14.4798V14.4794H11.4298V12.9494H8.37977V11.4294H5.33977V9.89937H2.28977V8.37937H0.759766V14.4794H2.28977V15.9994H0.759766V20.5694H2.28977V22.0894H0.759766ZM2.28977 17.5194H3.80977V15.9994H5.33977V17.5194H8.37977V19.0494H9.90976V20.5694H14.4798V19.0494H17.5298V17.5194H20.5698V15.9994H23.6198V14.4794H25.1498V17.5194H22.0998V19.0494H19.0498V20.5694H15.9998V22.0894H12.9598V23.6194H9.90976V22.0894H6.85977V20.5694H3.80977V19.0494H2.28977V17.5194Z" fill="#201F1F"/>
<path d="M29.7199 22.0898H26.6699V23.6198H29.7199V22.0898Z" fill="#201F1F"/>
<path d="M26.6711 23.6191H23.6211V25.1391H26.6711V23.6191Z" fill="#201F1F"/>
<path d="M26.6711 5.33008H23.6211V6.86008H26.6711V5.33008Z" fill="#201F1F"/>
<path d="M23.6184 25.1406H20.5684V26.6706H23.6184V25.1406Z" fill="#201F1F"/>
<path d="M23.6184 3.81055H20.5684V5.33055H23.6184V3.81055Z" fill="#201F1F"/>
<path d="M20.5693 26.6699H17.5293V28.1899H20.5693V26.6699Z" fill="#201F1F"/>
<path d="M20.5693 2.2793H17.5293V3.8093H20.5693V2.2793Z" fill="#201F1F"/>
<path d="M17.5285 0.759766H14.4785V2.27977H17.5285V0.759766Z" fill="#201F1F"/>
<path d="M17.5285 28.1895H14.4785V29.7095H17.5285V28.1895Z" fill="#201F1F"/>
<path d="M14.4797 2.2793H11.4297V3.8093H14.4797V2.2793Z" fill="#201F1F"/>
<path d="M11.4309 3.81055H8.38086V5.33055H11.4309V3.81055Z" fill="#201F1F"/>
<path d="M9.90937 28.1895H6.85938V29.7095H9.90937V28.1895Z" fill="#201F1F"/>
<path d="M9.90937 11.4301H15.9994V9.90008H19.0494V8.38008H22.0994V6.86008H17.5294V5.33008H12.9594V6.86008H9.90937V8.38008H6.85938V9.90008H9.90937V11.4301Z" fill="#201F1F"/>
<path d="M8.37984 5.33008H5.33984V6.86008H8.37984V5.33008Z" fill="#201F1F"/>
<path d="M6.86055 26.6699H3.81055V28.1899H6.86055V26.6699Z" fill="#201F1F"/>
<path d="M5.34102 6.85938H2.29102V8.37938H5.34102V6.85938Z" fill="#201F1F"/>
</g>
<defs>
<clipPath id="clip0_4377_93905">
<rect width="32" height="32" fill="white"/>
</clipPath>
</defs>
</svg>
