<svg width="24" height="24" viewBox="0 0 24 24" fill="none" xmlns="http://www.w3.org/2000/svg">
<g clip-path="url(#clip0_5027_13948)">
<rect y="3" width="24" height="18" fill="white"/>
<path d="M13.5 10.5H24V13.5H13.5V21H10.5V13.5H0V10.5H10.5V3H13.5V10.5Z" fill="#FF4D4D"/>
<path d="M24.4346 2.61133L13.4443 10.3945L13.4629 10.4092L24.9629 19.4092L24.0391 20.5908L14.2227 12.9072L13.9326 13.1123L0.432617 22.6123L-0.430664 21.3857L10.5889 13.6309L10.5352 13.5879L-1.46484 4.08789L-0.533203 2.91211L10.9424 11.9971L11.6533 11.2861L11.4014 10.9492L10.9385 10.332L11.5674 9.88672L23.5674 1.38672L24.4346 2.61133Z" fill="#FF4D4D"/>
<path d="M9.74805 3L3.74805 3L9.74805 7.5V3Z" fill="#4169F8"/>
<path d="M9.75 21L3.75 21L9.75 16.5V21Z" fill="#4169F8"/>
<path d="M-0.75 9.75L5.25 9.75L-0.75 5.25V9.75Z" fill="#4169F8"/>
<path d="M1.36019e-07 14.25L5.25 14.25L-3.25684e-08 18L1.36019e-07 14.25Z" fill="#4169F8"/>
<path d="M24 9.75L18.75 9.75L24 6L24 9.75Z" fill="#4169F8"/>
<path d="M24 14.25L18.75 14.25L24 18L24 14.25Z" fill="#4169F8"/>
<path d="M14.25 3L20.25 3L14.25 7.5V3Z" fill="#4169F8"/>
<path d="M14.25 21L20.25 21L14.25 16.5V21Z" fill="#4169F8"/>
<path d="M14.25 10.5H13.5V7.5H14.25V10.5Z" fill="white"/>
<path d="M10.5 10.5H5.25V9.75H9.75V7.5H10.5V10.5Z" fill="white"/>
<path d="M10.5 16.5H9.75V13.5H10.5V16.5Z" fill="white"/>
<path d="M19 13.5V14.25H14.3252V16.5H13.5V13.5H19Z" fill="white"/>
</g>
<defs>
<clipPath id="clip0_5027_13948">
<rect width="24" height="18" fill="white" transform="translate(0 3)"/>
</clipPath>
</defs>
</svg>
