<svg width="20" height="20" viewBox="0 0 20 20" fill="none" xmlns="http://www.w3.org/2000/svg">
<path d="M6.04166 5.83268H13.9583V4.16602C13.9583 2.49935 13.3333 1.66602 11.4583 1.66602H8.54166C6.66666 1.66602 6.04166 2.49935 6.04166 4.16602V5.83268Z" stroke="#201F1F" stroke-width="1.5" stroke-miterlimit="10" stroke-linecap="round" stroke-linejoin="round"/>
<path d="M13.3333 12.5V15.8333C13.3333 17.5 12.5 18.3333 10.8333 18.3333H9.16666C7.49999 18.3333 6.66666 17.5 6.66666 15.8333V12.5H13.3333Z" stroke="#201F1F" stroke-width="1.5" stroke-miterlimit="10" stroke-linecap="round" stroke-linejoin="round"/>
<path d="M17.5 8.33398V12.5007C17.5 14.1673 16.6667 15.0007 15 15.0007H13.3333V12.5007H6.66667V15.0007H5C3.33333 15.0007 2.5 14.1673 2.5 12.5007V8.33398C2.5 6.66732 3.33333 5.83398 5 5.83398H15C16.6667 5.83398 17.5 6.66732 17.5 8.33398Z" stroke="#201F1F" stroke-width="1.5" stroke-miterlimit="10" stroke-linecap="round" stroke-linejoin="round"/>
<path d="M14.1667 12.5H13.1583H5.83334" stroke="#201F1F" stroke-width="1.5" stroke-miterlimit="10" stroke-linecap="round" stroke-linejoin="round"/>
<path d="M5.83334 9.16602H8.33334" stroke="#201F1F" stroke-width="1.5" stroke-miterlimit="10" stroke-linecap="round" stroke-linejoin="round"/>
</svg>
