<svg width="20" height="20" viewBox="0 0 20 20" fill="none" xmlns="http://www.w3.org/2000/svg">
<path d="M1.66667 7.49935V5.41602C1.66667 3.34102 3.34167 1.66602 5.41667 1.66602H7.5" stroke="#201F1F" stroke-width="1.5" stroke-linecap="round" stroke-linejoin="round"/>
<path d="M12.5 1.66602H14.5833C16.6583 1.66602 18.3333 3.34102 18.3333 5.41602V7.49935" stroke="#201F1F" stroke-width="1.5" stroke-linecap="round" stroke-linejoin="round"/>
<path d="M18.3333 13.334V14.584C18.3333 16.659 16.6583 18.334 14.5833 18.334H13.3333" stroke="#201F1F" stroke-width="1.5" stroke-linecap="round" stroke-linejoin="round"/>
<path d="M7.5 18.3333H5.41667C3.34167 18.3333 1.66667 16.6583 1.66667 14.5833V12.5" stroke="#201F1F" stroke-width="1.5" stroke-linecap="round" stroke-linejoin="round"/>
<path d="M14.1667 7.91602V12.0827C14.1667 13.7493 13.3333 14.5827 11.6667 14.5827H8.33333C6.66667 14.5827 5.83333 13.7493 5.83333 12.0827V7.91602C5.83333 6.24935 6.66667 5.41602 8.33333 5.41602H11.6667C13.3333 5.41602 14.1667 6.24935 14.1667 7.91602Z" stroke="#201F1F" stroke-width="1.5" stroke-linecap="round" stroke-linejoin="round"/>
<path d="M15.8333 10H4.16667" stroke="#201F1F" stroke-width="1.5" stroke-linecap="round" stroke-linejoin="round"/>
</svg>
