<svg width="20" height="20" viewBox="0 0 20 20" fill="none" xmlns="http://www.w3.org/2000/svg">
<path d="M1.66666 7.49935V5.41602C1.66666 3.34102 3.34166 1.66602 5.41666 1.66602H7.49999" stroke="#201F1F" stroke-width="1.5" stroke-linecap="round" stroke-linejoin="round"/>
<path d="M12.5 1.66602H14.5833C16.6583 1.66602 18.3333 3.34102 18.3333 5.41602V7.49935" stroke="#201F1F" stroke-width="1.5" stroke-linecap="round" stroke-linejoin="round"/>
<path d="M18.3333 13.332V14.582C18.3333 16.657 16.6583 18.332 14.5833 18.332H13.3333" stroke="#201F1F" stroke-width="1.5" stroke-linecap="round" stroke-linejoin="round"/>
<path d="M7.49999 18.3333H5.41666C3.34166 18.3333 1.66666 16.6583 1.66666 14.5833V12.5" stroke="#201F1F" stroke-width="1.5" stroke-linecap="round" stroke-linejoin="round"/>
<path d="M8.75001 5.83203V7.4987C8.75001 8.33203 8.33334 8.7487 7.50001 8.7487H5.83334C5.00001 8.7487 4.58334 8.33203 4.58334 7.4987V5.83203C4.58334 4.9987 5.00001 4.58203 5.83334 4.58203H7.50001C8.33334 4.58203 8.75001 4.9987 8.75001 5.83203Z" stroke="#201F1F" stroke-width="1.5" stroke-linecap="round" stroke-linejoin="round"/>
<path d="M15.4167 5.83203V7.4987C15.4167 8.33203 15 8.7487 14.1667 8.7487H12.5C11.6667 8.7487 11.25 8.33203 11.25 7.4987V5.83203C11.25 4.9987 11.6667 4.58203 12.5 4.58203H14.1667C15 4.58203 15.4167 4.9987 15.4167 5.83203Z" stroke="#201F1F" stroke-width="1.5" stroke-linecap="round" stroke-linejoin="round"/>
<path d="M8.75001 12.5V14.1667C8.75001 15 8.33334 15.4167 7.50001 15.4167H5.83334C5.00001 15.4167 4.58334 15 4.58334 14.1667V12.5C4.58334 11.6667 5.00001 11.25 5.83334 11.25H7.50001C8.33334 11.25 8.75001 11.6667 8.75001 12.5Z" stroke="#201F1F" stroke-width="1.5" stroke-linecap="round" stroke-linejoin="round"/>
<path d="M15.4167 12.5V14.1667C15.4167 15 15 15.4167 14.1667 15.4167H12.5C11.6667 15.4167 11.25 15 11.25 14.1667V12.5C11.25 11.6667 11.6667 11.25 12.5 11.25H14.1667C15 11.25 15.4167 11.6667 15.4167 12.5Z" stroke="#201F1F" stroke-width="1.5" stroke-linecap="round" stroke-linejoin="round"/>
</svg>
